
<svg width="960px" height="640px" viewBox="0 0 960 640" version="1.1" xmlns="http://www.w3.org/2000/svg" xmlns:xlink="http://www.w3.org/1999/xlink">
    <g id="Page-1" stroke="none" stroke-width="1" fill="none" fill-rule="evenodd">
        <g id="border" fill-rule="nonzero">
            <path d="M0,40 L0,10 C0,4.5 4.5,0 10,0 L950,0 C955.5,0 960,4.5 960,10 L960,40" id="Path" fill="#DADADA"></path>
            <g id="Group" transform="translate(16.000000, 11.000000)" fill="#FFFFFF">
                <circle id="Oval" cx="9.381" cy="9" r="8.5"></circle>
                <circle id="Oval" cx="33.132" cy="9" r="8.5"></circle>
                <circle id="Oval" cx="56.883" cy="9" r="8.5"></circle>
            </g>
            <polygon id="Path" fill="#DADADA" points="0 636 960 636 960 640 0 640"></polygon>
            <polyline id="Path" fill="#DADADA" points="4 640 4 40 956 40 956 640 960 640 960 36 0 36 0 640"></polyline>
        </g>
        <g id="Group-2" transform="translate(38.000000, 256.000000)">
            <path d="M0,49 L874,49" id="Line" stroke="#979797" stroke-linecap="square"></path>
            <text id="Example-API-1" font-family="Arial-BoldMT, Arial" font-size="26" font-weight="bold" fill="#0862B2">
                <tspan aria-hidden="true" x="0" y="25">Example API 1</tspan>
            </text>
            <text id="REST-API" font-family="Arial-BoldMT, Arial" font-size="14" font-weight="bold" letter-spacing="0.875" fill="#FFFFFF">
                <tspan aria-hidden="true" x="791.477051" y="21">REST API</tspan>
            </text>
            <path d="M0,49 L874,49" id="Line" stroke="#979797" stroke-linecap="square"></path>
            <g id="ALPHA-Tag" transform="translate(780.000000, 0.000000)">
                <rect id="Tag" fill="#1D70B8" x="0" y="0" width="94" height="31"></rect>
                <text id="REST-API" font-family="Arial-BoldMT, Arial" font-size="14" font-weight="bold" letter-spacing="0.875" fill="#FFFFFF">
                    <tspan aria-hidden="true" x="11.4770508" y="21">REST API</tspan>
                </text>
            </g>
        </g>
        <g id="Group-2-Copy" transform="translate(38.000000, 324.000000)">
            <path d="M0,49 L874,49" id="Line" stroke="#979797" stroke-linecap="square"></path>
            <text id="REST-API" font-family="Arial-BoldMT, Arial" font-size="14" font-weight="bold" letter-spacing="0.875" fill="#FFFFFF">
                <tspan aria-hidden="true" x="791.477051" y="21">REST API</tspan>
            </text>
            <path d="M0,49 L874,49" id="Line" stroke="#979797" stroke-linecap="square"></path>
            <text id="Example-API-2" font-family="Arial-BoldMT, Arial" font-size="26" font-weight="bold" fill="#0862B2">
                <tspan aria-hidden="true" x="0" y="25">Example API 2</tspan>
            </text>
            <g id="ALPHA-Tag" transform="translate(780.000000, 0.000000)">
                <rect id="Tag" fill="#1D70B8" x="0" y="0" width="94" height="31"></rect>
                <text id="REST-API" font-family="Arial-BoldMT, Arial" font-size="14" font-weight="bold" letter-spacing="0.875" fill="#FFFFFF">
                    <tspan aria-hidden="true" x="11.4770508" y="21">REST API</tspan>
                </text>
            </g>
        </g>
        <g id="Group-2-Copy-2" transform="translate(38.000000, 392.000000)">
            <path d="M0,49 L874,49" id="Line" stroke="#979797" stroke-linecap="square"></path>
            <text id="REST-API" font-family="Arial-BoldMT, Arial" font-size="14" font-weight="bold" letter-spacing="0.875" fill="#FFFFFF">
                <tspan aria-hidden="true" x="791.477051" y="21">REST API</tspan>
            </text>
            <path d="M0,49 L874,49" id="Line" stroke="#979797" stroke-linecap="square"></path>
            <text id="Example-API-3" font-family="Arial-BoldMT, Arial" font-size="26" font-weight="bold" fill="#0862B2">
                <tspan aria-hidden="true" x="0" y="25">Example API 3</tspan>
            </text>
            <g id="ALPHA-Tag" transform="translate(780.000000, 0.000000)">
                <rect id="Tag" fill="#1D70B8" x="0" y="0" width="94" height="31"></rect>
                <text id="REST-API" font-family="Arial-BoldMT, Arial" font-size="14" font-weight="bold" letter-spacing="0.875" fill="#FFFFFF">
                    <tspan aria-hidden="true" x="11.4770508" y="21">REST API</tspan>
                </text>
            </g>
        </g>
        <g id="Group-2-Copy-3" transform="translate(38.000000, 460.000000)">
            <path d="M0,49 L874,49" id="Line" stroke="#979797" stroke-linecap="square"></path>
            <text id="REST-API" font-family="Arial-BoldMT, Arial" font-size="14" font-weight="bold" letter-spacing="0.875" fill="#FFFFFF">
                <tspan aria-hidden="true" x="791.477051" y="21">REST API</tspan>
            </text>
            <path d="M0,49 L874,49" id="Line" stroke="#979797" stroke-linecap="square"></path>
            <text id="Example-API-4" font-family="Arial-BoldMT, Arial" font-size="26" font-weight="bold" fill="#0862B2">
                <tspan aria-hidden="true" x="0" y="25">Example API 4</tspan>
            </text>
            <g id="ALPHA-Tag" transform="translate(780.000000, 0.000000)">
                <rect id="Tag" fill="#1D70B8" x="0" y="0" width="94" height="31"></rect>
                <text id="REST-API" font-family="Arial-BoldMT, Arial" font-size="14" font-weight="bold" letter-spacing="0.875" fill="#FFFFFF">
                    <tspan aria-hidden="true" x="11.4770508" y="21">REST API</tspan>
                </text>
            </g>
        </g>
        <g id="Group-2-Copy-4" transform="translate(38.000000, 528.000000)">
            <path d="M0,49 L874,49" id="Line" stroke="#979797" stroke-linecap="square"></path>
            <text id="REST-API" font-family="Arial-BoldMT, Arial" font-size="14" font-weight="bold" letter-spacing="0.875" fill="#FFFFFF">
                <tspan aria-hidden="true" x="791.477051" y="21">REST API</tspan>
            </text>
            <path d="M0,49 L874,49" id="Line" stroke="#979797" stroke-linecap="square"></path>
            <text id="Example-API-5" font-family="Arial-BoldMT, Arial" font-size="26" font-weight="bold" fill="#0862B2">
                <tspan aria-hidden="true" x="0" y="25">Example API 5</tspan>
            </text>
            <g id="ALPHA-Tag" transform="translate(780.000000, 0.000000)">
                <rect id="Tag" fill="#1D70B8" x="0" y="0" width="94" height="31"></rect>
                <text id="REST-API" font-family="Arial-BoldMT, Arial" font-size="14" font-weight="bold" letter-spacing="0.875" fill="#FFFFFF">
                    <tspan aria-hidden="true" x="11.4770508" y="21">REST API</tspan>
                </text>
            </g>
        </g>
        <text id="APIs" font-family="Arial-BoldMT, Arial" font-size="48" font-weight="bold" line-spacing="50" fill="#0B0C0C">
            <tspan aria-hidden="true" x="38" y="194">APIs</tspan>
        </text>
        <g id="2---components/header/default" transform="translate(4.000000, 40.000000)">
            <g id="Header">
                <g id="Black-bar" fill="#003a69">
                    <rect id="Black-Bar" x="0" y="0" width="952" height="55"></rect>
                </g>
                <g id="4---granular-components/govuk-logo" transform="translate(47.000000, 10.000000)" fill="#FFFFFF">
                    <g id="logo">
                        <g id="crown" transform="translate(0.000000, 3.000000)">
                            <path d="M15.503 4.871c-.171.326-.318.516-.295.767.022.253.286.43.411.684.114-.295.304-.516.281-.747-.023-.23-.341-.536-.397-.704zM19.876 4.871c.17.326.318.516.295.767-.023.253-.287.43-.412.684-.114-.295-.302-.516-.28-.747.022-.23.34-.536.397-.704zM12.985 4.682a.295.295 0 100-.591.295.295 0 100 .591zM13.183 5.104a.296.296 0 10-.591 0 .296.296 0 00.59 0zM13.327 5.82a.297.297 0 00-.296-.295.295.295 0 100 .59c.163 0 .296-.13.296-.294zM14.622 3.273a.295.295 0 100-.59.295.295 0 000 .59zM13.886 3.5a.296.296 0 100-.591.296.296 0 000 .591zM13.309 4.006a.295.295 0 10.001-.59.295.295 0 00-.001.59zM15.392 3.344a.295.295 0 100-.59.296.296 0 00-.296.294c0 .164.134.296.296.296zM16.125 3.556a.296.296 0 10-.002-.592.296.296 0 00.002.592zM16.815 3.88a.296.296 0 10-.001-.593.296.296 0 00.001.593zM22.088 4.386a.296.296 0 10.592 0 .296.296 0 00-.592 0zM22.482 4.809a.296.296 0 000 .591.296.296 0 100-.592zM22.338 5.525a.296.296 0 100 .592.296.296 0 000-.592zM20.748 3.273a.296.296 0 00.297-.296.297.297 0 00-.593 0c0 .164.134.296.296.296zM21.483 3.5a.296.296 0 100-.592.296.296 0 000 .592zM22.06 4.006a.296.296 0 100-.592.296.296 0 000 .592zM19.976 3.344a.295.295 0 100-.59.296.296 0 100 .59zM19.244 3.556a.296.296 0 000-.591.295.295 0 000 .591zM18.26 3.584a.295.295 0 10.59 0 .295.295 0 10-.59 0zM17.18 5.183h.33V3.917a1.171 1.171 0 01-.33-.102v1.368zM18.19 3.815a1.181 1.181 0 01-.331.102v1.266h.33V3.815zM17.495 2.418v-.75a.929.929 0 00-.726.75h.726zM17.879 2.418h.72a.928.928 0 00-.72-.75v.75zM16.778 2.78a.93.93 0 001.813 0h-1.813zM18.194 1.549c-.212-.166-.374-.404-.404-.655.241.043.511.219.671.427V.303c-.16.21-.43.385-.671.427.027-.248.18-.472.387-.73h-.985c.208.258.36.482.387.73a1.171 1.171 0 01-.67-.427V1.32c.159-.208.429-.384.67-.427-.03.25-.191.49-.404.655h1.019zM19.281 21.85c-.93-.233-2.038-.63-3.072-1.101v-.012a.806.806 0 00-.21-.628.789.789 0 00-.587-.288.827.827 0 00-.281.054 4.495 4.495 0 01-.429-.439 5.09 5.09 0 01-.912-1.585 5.601 5.601 0 01-.268-1.053c-.05.302-.39.7-.97.707.009-.063.002-.214-.052-.23-.152.17-.382.354-.909.168.082.411.195.816.342 1.207a7.107 7.107 0 001.337 2.243c.188.214.387.413.595.596a.957.957 0 00-.007.12c0 .219.21.564.513.712.248.12.516.089.758-.087.451.241 1.028.466 1.648.639.696.194 1.37.302 1.896.302.454 0 1.053-.215 1.645-.587a4.201 4.201 0 00.686-.53c-.46.064-1.155-.067-1.723-.208zm-3.406-1.398l-.098-.074c-.18-.136-.333-.134-.495.006a1.979 1.979 0 00-.214.225l-.101.115.068.055c.19.153.22.32.165.417a.164.164 0 01-.099.076c-.093.025-.227-.009-.365-.091l-.072-.042-.043.071-.035.052a1.032 1.032 0 00-.05.077c-.082.143-.121.251-.121.34 0 .025.003.048.01.07.027.104.112.153.186.193l.046.028c.085.054.205.125.295.176a.518.518 0 01-.507.021c-.255-.124-.418-.415-.418-.559 0-.22.099-.5.28-.785l.028-.044-.026-.045a1.793 1.793 0 01-.131-.255 3.3 3.3 0 01.287.053l.047.011.034-.035c.111-.122.503-.517.866-.517a.62.62 0 01.46.229.698.698 0 01.168.355 3.64 3.64 0 01-.165-.123zm.601 1.77a.399.399 0 11.002-.798.399.399 0 01-.002.798zm1.744.539a.365.365 0 010-.729.364.364 0 010 .729zM18.7 24.597a.665.665 0 00-.187.027V23.51a7.728 7.728 0 01-1.627-.244v1.362a.634.634 0 00-.83.603c0 .286.169.55.315.716.074-.174.14-.314.237-.314.193 0 .105.965.672.993a.443.443 0 10.829 0c.567-.027.471-.993.667-.993.097 0 .157.133.243.314.147-.166.315-.43.315-.717a.634.634 0 00-.633-.633zm-1.005 2.43a.247.247 0 110-.495.247.247 0 010 .494zm1.325-1.404c-.067-.125-.164-.196-.249-.196-.38 0-.232 1.002-.684 1.002-.198 0-.303-.126-.303-.268 0-.14.098-.183.098-.296 0-.113-.089-.154-.187-.154-.099 0-.188.04-.188.154 0 .113.1.156.1.296 0 .142-.107.268-.305.268-.451 0-.303-1.002-.683-1.002-.084 0-.183.071-.249.196a.906.906 0 01-.118-.393c0-.183.141-.437.437-.437.507 0 .39.692.632.692.108 0 .186-.065.186-.17 0-.197-.352-.384-.352-.666 0-.282.257-.52.54-.746.282.227.54.464.54.746s-.353.469-.353.666c0 .105.078.17.186.17.243 0 .125-.692.633-.692.296 0 .438.254.438.437 0 .107-.044.251-.119.393z" fill="#fff" fill-rule="nonzero"/>
                            <path d="M31.77 25.936a.117.117 0 00-.145-.071c-1.304.379-2.92-.699-4.485-1.743-1.316-.876-2.559-1.705-3.624-1.705a2.17 2.17 0 00-1.046.247c-.373.206-.65.53-.829.963-.18.435-.368.733-.52.973-.18.286-.312.491-.312.75 0 .21.09.4.271.581.151.152.368.3.684.468.067.035.134.067.2.098.258.127.418.212.448.358-.515.227-1.183.415-1.94.548-.854.148-1.792.226-2.782.226-.991 0-1.927-.078-2.782-.226-.758-.133-1.426-.321-1.943-.55.021-.218.181-.304.464-.438.067-.032.134-.063.202-.1.258-.136.504-.271.67-.419.183-.163.27-.337.27-.546 0-.257-.132-.462-.311-.75a5.893 5.893 0 01-.52-.973c-.178-.433-.458-.757-.83-.96a2.157 2.157 0 00-1.044-.249c-1.066 0-2.31.828-3.625 1.706-1.564 1.042-3.182 2.12-4.485 1.741a.12.12 0 00-.146.074.12.12 0 00.064.15c.397.175.747.448 1.085.71.47.367.913.713 1.403.713.462 0 .96-.147 1.565-.463.524-.275 1.07-.645 1.595-1.005 1.031-.704 2.095-1.43 3.104-1.51-.105.109-.208.2-.304.286-.298.266-.556.497-.556.965 0 .368.126.63.3.995.051.104.11.225.17.36.112.249.16.45.227.726.029.119.061.252.104.41.064.24.184.689.924 1.065.86.438 2.339.659 4.4.659 2.059 0 3.538-.221 4.397-.659.74-.376.86-.825.924-1.064.043-.159.075-.292.105-.411.067-.276.115-.477.227-.726.082-.182.161-.332.232-.464.154-.29.276-.52.276-.852 0-.469-.27-.711-.583-.993a6.027 6.027 0 01-.316-.299c1.012.081 2.075.806 3.106 1.512.525.358 1.071.729 1.595 1.004.605.316 1.103.462 1.567.462.487 0 .931-.347 1.402-.713.337-.261.687-.534 1.083-.711a.12.12 0 00.064-.15zM23.94 15.504c-.145-.107-.38-.326-.501-.583-.155-.321-.8-1.593-.903-1.763a.768.768 0 01-.126-.38c0-.134.067-.242.137-.337.052-.064.192-.201.245-.285a1 1 0 01.114-.15 6.123 6.123 0 00-.786-1.064 6.372 6.372 0 00-1.263-1.094c.248-.16.499-.392.499-.78a.71.71 0 00-.26-.554c.26-.836.728-1.84 1.126-2.282l-.838-.353c.217.331.232.717.184.945-.218-.153-.404-.36-.465-.634a3.755 3.755 0 01-.309.91c.242-.114.436-.166.682-.064a.994.994 0 01-1.053.352c-.298-.072-.594-.23-.582-.46.008-.137.11-.302.296-.284.182.019.192.296.136.42.239-.136.487-.838.113-.942-.295-.08-.564.323-.661.633-.056-.374-.21-.732-.508-.712-.385.026-.26.738-.125.919.024-.25.16-.383.274-.374.102.007.239.08.216.306-.025.228-.347.367-.719.367-.353 0-.974-.109-1.033-.792.23.041.59.215.744.445a4.482 4.482 0 010-1.135c-.19.27-.512.41-.733.445.064-.292.316-.601.609-.785h-1.521c.293.184.544.491.609.783-.222-.038-.536-.177-.721-.443.047.428.047.722 0 1.135.15-.226.5-.399.73-.443-.058.681-.68.79-1.032.79-.37 0-.694-.14-.718-.367-.023-.226.113-.299.216-.306.113-.01.25.124.274.374.133-.181.258-.893-.126-.919-.297-.02-.452.338-.508.712-.097-.31-.366-.714-.66-.633-.375.104-.126.806.113.942-.058-.124-.046-.401.135-.42.187-.018.288.147.296.284.013.23-.284.388-.581.46a.997.997 0 01-1.051-.349c.249-.107.446-.054.69.06a3.7 3.7 0 01-.307-.91c-.065.28-.254.489-.477.64a1.312 1.312 0 01.183-.95l-.837.353c.398.442.867 1.452 1.128 2.29a.702.702 0 00-.25.545c0 .389.249.622.497.781-.46.301-.882.667-1.263 1.094a7.053 7.053 0 00-1.336 2.228c.116.12.616.666.735.815.208.262.331.526.337.731.014.38.092.53.295.783.062.08.154.377.163.56h4.158v4.527c-.163.012-.336.053-.478.226.482.194.938.367 1.398.51.042-.297.104-.48.252-.662 0 0-.603-.06-.927-.077V16.06h4.063a5.711 5.711 0 01-.33 1.792 5.125 5.125 0 01-.913 1.586c-.389.458-.843.815-1.349 1.065-.08.04-.078.098-.16.132a1.152 1.152 0 00-.2.367 1.59 1.59 0 00-.094.412c.19.06.294.09.475.135 1.428.357 1.782.252 1.862.19l.003-.002c.32-.246.62-.528.897-.843a7.14 7.14 0 001.336-2.243c.326-.87.49-1.793.49-2.743 0-.174.005-.231-.006-.403zm-6.319.311h-4.164a5.7 5.7 0 01.333-1.859 5.107 5.107 0 01.912-1.587c.39-.456.845-.815 1.348-1.065a3.691 3.691 0 011.571-.384v4.895zm.072-6.93c-1.386 0-2.341.409-2.898.78-.322-.19-.46-.378-.46-.598 0-.788 2.227-.858 3.358-.858h.001c1.13 0 3.359.07 3.359.858 0 .22-.14.408-.462.598-.556-.371-1.511-.78-2.898-.78zm.173 6.93v-4.89a3.69 3.69 0 011.471.38c.506.25.96.608 1.35 1.064.39.459.697.993.912 1.587a5.71 5.71 0 01.333 1.86h-4.066z" fill="#fff" fill-rule="nonzero"/>
                            <path d="M21.287 15.017c.07.046.048.159-.043.149a4.62 4.62 0 00-.781-2.064c.003-.003.007-.006.01-.011a.261.261 0 00.174-.213.267.267 0 00-.262.115c-.029-.039-.06-.077-.09-.115a3.873 3.873 0 00-.88-.825 3.244 3.244 0 00-.98-.449c.006-.08.11-.091.15-.022.012-.129-.1-.193-.163-.168-.035.013-.066.042-.073.101a.268.268 0 00-.185-.097.269.269 0 00.059.194.118.118 0 00-.109.054c-.033.06.01.18.142.19-.062-.05-.036-.15.043-.144v1.59a.264.264 0 00-.265.068.26.26 0 00.265.069v1.727c-.086.006-.11-.1-.04-.148-.13 0-.185.116-.156.177.02.04.058.069.131.063a.273.273 0 00-.069.182c.08 0 .139-.03.182-.07-.007.073.025.112.065.132.059.029.176-.025.176-.155-.046.066-.149.045-.149-.033h1.199a.27.27 0 00.068.262.264.264 0 00.07-.262h1.336c.006.083-.1.106-.146.041.003.13.122.18.18.15.04-.019.07-.06.061-.133a.271.271 0 00.184.064.27.27 0 00-.075-.18c.075.004.112-.026.131-.065.027-.061-.03-.178-.16-.174zm-1.15-2.106c-.036.034-.051.08-.04.115.013.04.048.076.122.08a.27.27 0 00-.094.17.266.266 0 00.19-.043c-.017.071.007.115.043.138.027.02.07.021.11.002.307.498.517 1.067.609 1.65a.265.265 0 00-.152-.042.263.263 0 00.082.188h-1.016c.008-.064-.024-.12-.068-.135-.04-.015-.089-.007-.136.049a.274.274 0 00-.08-.179.27.27 0 00-.08.179c-.046-.056-.096-.064-.137-.049-.04.014-.074.07-.067.135h-.868a.267.267 0 00.062-.172.264.264 0 00-.175.064v-1.407c.067.011.126-.023.14-.065.014-.042.008-.091-.05-.139a.267.267 0 00.18-.08.269.269 0 00-.18-.078c.058-.048.064-.097.05-.139-.014-.042-.073-.076-.14-.066v-1.189c.038.031.088.054.15.061a.268.268 0 00-.04-.17c.27.087.532.217.783.383.294.2.565.447.803.74z" fill="#fff" fill-rule="nonzero"/>
                            <path d="M20.575 14.578a.22.22 0 00.112-.102c-.06.02-.103-.008-.115-.015.04-.023.088.003.04-.073-.046-.075-.079-.077-.128-.023-.05.052-.372-.013-.37-.256a.224.224 0 00.11.092l.04.019.041.008c.032.01.066.016.093.013l.017.001v-.008c.066-.014.12-.055.126-.126.012-.133-.114-.195-.254-.311a2.194 2.194 0 01-.13-.12c-.049-.096-.016-.182-.138-.357a.79.79 0 00-.04-.155.442.442 0 00.076.513c.134.148.423.29.41.418-.002.028-.03.055-.073.063-.013-.001-.026-.001-.04-.005a.113.113 0 01-.026-.008.438.438 0 01-.161-.106c-.119-.113-.228-.275-.299-.367-.135-.17-.073-.335-.053-.478.095-.13-.056-.396-.146-.461 0 0 .02-.06-.006-.137-.018.015-.06.011-.082.009-.024-.049-.034-.059-.067-.065-.058-.009-.057-.041-.063-.064-.033.03-.045.06-.08.062-.047.001-.067-.001-.086.016-.034.027-.048.038-.1.035-.055 0-.054.032-.05.07.006.025.007.064.04.078.005.003.01.006.017.008l.044.051.028-.055c.023-.022.094-.027.107.023.01.034.017.046-.028.05-.048.007-.072.007-.117.01-.03 0-.03.04-.029.065.002.031.037.048.101.031.065-.016.179-.028.179.027 0 .144-.165.14-.202.31a.316.316 0 01-.101-.094.623.623 0 00-.121-.15.659.659 0 00-.124-.102c-.057-.034-.06-.062-.06-.12 0-.052.023-.1.021-.146a.227.227 0 00-.013-.044c-.012-.032-.054-.056-.079-.05.013.01.029.022.032.051-.012.01-.022.025-.024.027-.01.014-.016.033.003.05.003.002.003.006.003.011 0 .007 0 .014-.003.024s-.005.005-.007-.001c-.013-.036-.029-.089-.062-.092h-.024a.014.014 0 00.003-.007c0-.037-.043-.066-.087-.022.01.003.028.005.035.014a.215.215 0 00-.01.039c-.003.036.025.054.067.054.007 0 .011.003.012.008.003.005.004.01.005.016.002.006-.002.005-.006.004-.067-.03-.094.001-.097.03 0 .003 0 .02.003.028-.024.015-.03.05.013.078 0-.013-.002-.034.014-.041.004-.001.007-.002.01-.005a.052.052 0 00.018.017c.005.003.017 0 .037-.013.006-.004.01-.005.017 0 .006.005.012.01.02.013.004.003.003.007 0 .01-.042.042-.034.08.016.093-.026.046-.102.029-.098-.04-.055.09.037.153.114.121.003.032.002.096.014.098-.002-.005.004-.018.017-.018.006 0 .007.004.007.01.001.02.01.047.04.051-.005-.014 0-.023.01-.028.01.021.027.045.037.063.037.068.113.24.285.314a.783.783 0 00-.202.192c-.048.046-.119.098-.163.072-.02-.014-.024-.031-.052-.051a.077.077 0 00-.054-.015c-.002.001-.017.005-.028.012-.03-.012-.076.004-.09.027.018-.002.037-.007.062.01-.001.012-.001.03-.003.03-.002.021.015.045.105.039.005 0 .015.002.01.01-.01.008-.024.02-.046.013-.04-.01-.06-.043-.089-.006 0 .002-.009.014-.018.024-.002-.002-.006 0-.009 0-.035.011-.068.079-.027.108 0-.013.004-.04.026-.054l.018.02c.026.038.055.06.114-.03.007-.008.008-.001.007.003-.003.042-.043.101.01.11l.026.003.001.01c.01.049.076.062.1.049-.017-.008-.046-.022-.056-.059.011 0 .025 0 .027-.004.032-.032-.007-.074.01-.096.003-.008.008-.005.012 0 .012.019.038.058.085.034a.074.074 0 00.035-.057c.06-.025.115-.046.158-.03-.008-.032.028-.076.093-.092.064-.018.092.001.113.02a.294.294 0 01.064-.11c-.007.254.335.248.415.4-.104-.042-.218-.068-.282-.054-.083.015-.228.093-.247.188-.014.078.066.216.147.272-.097.018-.133-.011-.224.012a.03.03 0 00-.01-.004c-.076.009-.088-.128-.18-.092a.075.075 0 00-.025.018h-.001c-.036 0-.085.044-.076.08a.102.102 0 01.058-.033c-.002.008-.002.018-.002.019 0 .014.004.03.034.03.02 0 .025-.008.037-.008.006 0 .011.004.011.01 0 .036-.115-.02-.094.078 0 .002.011.02.017.027-.003.03.02.06.072.043-.01-.007-.029-.02-.024-.036.01.002.02.002.022.002.006 0 .01-.003.013-.015 0-.003.002-.004.005-.004.006.002.01.005.01.009 0 .005-.006.01-.006.021 0 0 .005.026.008.03-.003.035.047.072.097.036-.014 0-.046-.007-.049-.026a.063.063 0 00.024-.01c.007-.005.01-.02.01-.033 0-.01.004-.01.01-.01.007 0 .017 0 .025-.002.01-.001.013.004.015.008.012.02.038.042.072.03.02-.007.027-.018.03-.026.014.008.027.015.042.026-.01-.037.016-.066.095-.014l.058-.044s.076.032.104-.003c.048-.042.023-.044.023-.084-.034-.076-.053-.07-.069-.142-.025-.127.15-.199.252-.178.02.08.134.292.32.355.118.041.166-.088.204-.07.008.003.015.015.02.035-.006.057.003.11-.012.137-.013.028-.076.004-.118.002-.025-.002-.044.015-.046.02-.035.006-.078.038-.076.08.014-.01.037-.031.066-.035l.002.017c.006.05.061.066.094.033.002-.007.017 0 .01.006-.029.021-.082.07-.037.088.001 0 .015.008.025.011-.003.034.02.062.046.067-.009-.016-.011-.027.004-.06h.024c.033.001.019-.061.053-.079.004-.004.01-.002.007.002-.012.035-.018.078.014.09l.026.005c.01.028.044.048.09.026-.01-.006-.034-.016-.04-.03.009-.013.022-.028.023-.032.023-.076-.045-.078-.045-.109 0-.037.077-.013.077-.088l-.003-.012c.036-.02.074-.043.077-.071a.203.203 0 01-.096-.019v-.003zM17.149 16.871l-.07-.004.001-.066c.01-.244-.136-.426-.398-.426-.234 0-.685.303-1.318.303-.268 0-.589-.13-.79-.248l-.078.19c.002-.008.002-.013.002-.02a.156.156 0 10-.035.098l-.079.188c.027.012.054.024.083.034-.092.958.616 2.18 1.867 2.551.187-.05.376-.022.376.18 0 .125-.063.18-.175.18-.075 0-.122-.043-.122-.093 0-.084.146-.033.161-.092.02-.076-.031-.11-.116-.11-.087 0-.219.056-.219.202 0 .173.137.274.285.274.14 0 .431-.078.39-.42.068.003.143-.009.16-.073l.014-.194-.067-.01.052-2.194.05.003c.08.006.15-.03.156-.117.005-.088-.065-.13-.13-.136zm-2.263.172l1.52 2.187c-.814-.317-1.623-1.047-1.52-2.187zm1.566 1.978l-1.386-1.993.127.003c.071 0 .143-.004.213-.015l1.112 1.596-.066.409zm.101-.632l-.978-1.404a2.5 2.5 0 00.314-.093l.735 1.05-.07.447zm.236-1.544l-.055-.005c-.066-.004-.149.027-.156.113-.006.088.056.136.137.142l.04.003a3.43 3.43 0 00-.007.058l-.088.568-.621-.888c.29-.116.525-.242.65-.242.1 0 .122.048.1.25zM16.883 12.452c.297.002.444-.095.444-.188 0-.329-.815-.125-.815-.326 0-.032.023-.061.06-.089h.011c.41-.038.416-.32.71-.378-.354-.05-.403.228-.554.24.08-.037.11-.133.102-.169-.071.096-.23.104-.318.215-.013.018-.02.04-.014.058-.054.034-.087.072-.087.12 0 .312.828.097.828.324 0 .08-.142.133-.37.133-.17 0-.292-.122-.61-.04.001-.053.107-.154.065-.203.03-.011.053-.037.053-.062a.105.105 0 00-.061-.028c.01-.016-.003-.033-.016-.044-.001-.004-.008-.037-.016-.044-.012-.01-.037-.032-.074-.049-.036-.018-.059-.018-.073-.02-.01-.003-.043.005-.046.005-.02-.003-.04-.003-.042.02a.09.09 0 00-.058-.025.114.114 0 00-.008.087c-.029.003-.061.078-.09.07.011.022.02.031.029.033-.024.044-.035.097-.063.099.008.01.015.019.022.025a.875.875 0 00-.043.188h-.001a.32.32 0 00-.066-.053c-.048-.027-.045-.05-.037-.097.006-.041.033-.079.037-.116l-.007-.038c-.006-.026-.041-.047-.063-.042.01.008.022.017.02.042-.01.008-.02.02-.023.02-.012.013-.019.028-.007.042.004.004.004.005.003.009 0 .006-.003.01-.006.019-.003.007-.004.003-.005 0-.006-.03-.015-.072-.043-.075a.122.122 0 00-.022-.002.008.008 0 00.002-.005c.004-.03-.029-.055-.075-.019.01.001.024.003.03.013-.008.01-.013.027-.014.03-.007.031.017.044.052.046.008 0 .011.002.011.004a.035.035 0 01.003.014c0 .006-.003.005-.006.004-.057-.024-.085 0-.092.022l-.002.024c-.022.013-.033.04.004.063.001-.01.002-.03.019-.035.001 0 .005 0 .009-.002.003.006.011.013.012.014.005.002.015.002.037-.01.004-.003.009-.004.015 0a.33.33 0 00.016.012c.003 0 .002.004-.002.008-.046.034-.045.069.008.08.006 0 .007.003.006.009-.014.067-.111.051-.096-.014-.065.076.02.134.098.097.006-.002.008-.001.01.002.001.013.007.024.02.026-.002-.003.005-.015.018-.015.004 0 .004.003.004.007 0 .017.002.04.029.044-.002-.014.003-.027.013-.027.01 0 .032.056.075.103a.923.923 0 01-.183.055c-.015 0-.113-.01-.145.007-.046.024-.161.068-.195.02-.012-.017-.009-.033-.022-.058-.012-.016-.027-.028-.037-.03h-.028c-.019-.021-.062-.025-.078-.01.014.004.03.006.044.03a.117.117 0 00-.012.024c-.01.014-.003.038.07.063.003.003.008.009.003.012-.012.005-.027.007-.041-.004-.029-.023-.032-.057-.067-.035l-.022.01a.017.017 0 00-.008-.001c-.032-.004-.083.036-.06.073.005-.009.017-.029.04-.033l.007.023c.007.037.023.066.099.016.008-.006.008.003.006.004-.017.032-.068.064-.03.09.003 0 .01.006.019.013-.002.002-.004.004-.004.007-.008.043.039.073.064.072a.069.069 0 01-.024-.064l.022.005c.036-.013.02-.059.039-.072.005-.005.01-.002.01.004.003.017.011.06.056.056.04-.005.06-.04.057-.062-.001-.005 0-.006.003-.005.015.01.027.027.022.048a.061.061 0 00.03-.031c.01.019.012.049-.016.076.017-.007.06-.027.071-.075a.068.068 0 01.015.025c0-.004.001-.004.002-.004a.147.147 0 00.089-.004c.005 0 .006.003.006.006-.005.018-.005.034.004.044 0-.006.012-.022.017-.022.012 0 0 .043.026.07.01-.11.069-.067.138-.112.009-.006.01-.003.007.004a.082.082 0 01-.03.036c.026 0 .086-.026.086-.065 0-.008.02-.022.044-.037.024.005.063-.007.079-.036.003.012.015.043-.002.053.072.005.148-.077.176-.085.155-.033-.097-.144.221-.126a.158.158 0 00.093-.034c-.024.048-.026.144.023.151a.189.189 0 01.082.035c.003.005.002.007-.003.009a.204.204 0 00-.068.017c-.075.05-.077-.112-.156-.082-.004.001-.015.012-.02.015-.032 0-.075.039-.068.071.01-.009.026-.027.05-.028v.016c-.002.012.004.025.03.025.016 0 .02-.007.031-.007.006 0 .008.002.008.008 0 .032-.097-.017-.08.066 0 .003.009.02.015.025-.003.025.018.051.062.036-.008-.006-.024-.016-.021-.03l.02.003c.003 0 .008-.003.01-.014 0-.002.002-.004.004-.003.006 0 .01.003.01.007 0 .005-.007.01-.007.017 0 .002.005.023.008.026-.005.03.04.06.083.03-.012 0-.039-.007-.042-.02a.049.049 0 00.02-.01c.007-.005.009-.015.009-.028 0-.007.005-.007.008-.007.007-.001.015-.001.021-.003.009 0 .012.003.015.006.007.02.031.036.06.025.054-.017.008-.063.051-.072.008-.003.023-.005.033 0 .041.01.103.008.114-.011.01-.021.005-.096-.039-.123-.027-.013.001-.044-.024-.083.046.02.093.039.157.039.114 0 .005-.017.056-.048.055-.036.12-.018.137-.014.015.002.027.009.023.027-.013.06.006.066-.007.093-.011.024-.06.004-.093.003-.02-.002-.036.011-.036.014-.029.007-.061.032-.06.065a.11.11 0 01.051-.026l.001.012c.004.04.05.054.074.026.004-.005.016 0 .01.006-.024.018-.065.056-.03.072l.019.008c-.002.027.017.05.038.055-.008-.013-.01-.02.002-.049h.02c.025.001.014-.049.042-.064.004-.002.007-.002.005.001-.01.03-.015.064.012.073l.02.005c.008.021.034.038.069.02-.007-.003-.026-.013-.03-.023a.113.113 0 00.018-.027c.017-.062-.035-.062-.035-.087 0-.03.06-.013.06-.073a.04.04 0 00-.025-.038c-.003 0-.003-.002-.002-.004h.001c.016 0 .033.005.042-.019-.044.003-.03-.035-.038-.06 0-.002 0-.005.004-.01.014-.01.025-.028.02-.065-.015.02-.066.044-.07.003-.001-.003-.003-.033-.049-.025-.075.009-.111-.031-.256-.045-.008 0-.015-.007 0-.009zm-.907-.332l-.005.001h.005zm.214-.053a.404.404 0 00.097.038c-.044.01-.033.028-.062.026-.028 0-.04-.037-.035-.064zm-.06-.032c-.012.024-.04.04-.062.02s.003-.027-.022-.067c.023.017.07.045.084.047zm-.091.201c.007-.016.014-.03.024-.03.016.001.025-.003.03-.02.01-.019-.01-.026-.026-.04.018-.005.026-.01.018-.02-.012-.012-.03.007-.035-.002-.003-.009.013-.016.017-.02.008-.008.015-.007.024 0l.08.037c.01.004.016.008.016.02-.002.01.003.022-.005.026-.008.003-.008-.024-.022-.026-.012-.001-.012.01-.005.029-.02-.008-.036-.016-.045.002-.008.015-.006.026.006.04.007.007 0 .022-.006.04-.006.016-.028.042-.057.027-.028-.014-.024-.045-.014-.063zM17.294 13.56c0-.089-.1-.146-.39-.146-.291 0-.946.108-.946-.055 0-.081.128-.074.282-.065.01.013.03.026.063.034.374.109.816-.089 1.043-.024-.267-.203-.49.006-.776-.055.167 0 .224-.046.232-.093-.129.085-.375-.042-.527.052-.01.006-.018.013-.025.02-.208-.006-.373-.006-.373.13 0 .291.779.121 1.024.121.244 0 .296.024.296.072 0 .069-.243.087-.38.087-.212 0-.85-.112-1.237-.035.031-.062.1-.143.064-.19.035-.014.058-.044.06-.073a.135.135 0 00-.07-.033c.012-.017-.004-.036-.02-.051-.003-.005-.01-.044-.019-.05-.014-.012-.041-.039-.084-.057-.043-.02-.07-.02-.089-.025-.01-.003-.049.008-.052.008-.02-.004-.045-.004-.05.02a.115.115 0 00-.066-.027.135.135 0 00-.01.103c-.035.002-.07.092-.103.08.012.024.022.035.033.037-.029.052-.041.114-.075.115.021.03.036.04.049.043-.005.038-.006.08-.008.112l-.062-.022-.017-.003a.047.047 0 01-.024-.009.147.147 0 01.026.007l-.036-.013c-.032-.026-.072-.076-.127-.109-.056-.033-.057-.06-.053-.12.003-.052.028-.098.028-.143a.64.64 0 00-.013-.046c-.005-.031-.047-.056-.074-.05.014.01.028.021.029.051a.204.204 0 00-.026.027c-.01.014-.016.032 0 .052.003.002.004.005.003.01 0 .004 0 .011-.005.023-.002.01-.005.004-.005-.001-.011-.036-.026-.089-.057-.09-.004 0-.019-.005-.025-.002l.003-.007c.002-.038-.039-.068-.085-.021.01 0 .028.004.035.015a.13.13 0 00-.011.039c-.005.036.021.05.062.052.007 0 .011.003.013.007l.003.017c.002.007-.002.006-.007.003-.064-.029-.093.003-.096.032 0 .002-.002.018 0 .026-.025.017-.032.052.01.08 0-.014-.002-.037.016-.042a.038.038 0 00.01-.005.062.062 0 00.016.017c.006.003.017 0 .038-.013.006-.004.01-.006.017 0a.08.08 0 01.018.013c.005.003.005.008 0 .012-.046.043-.042.085.016.095.008.001.01.006.01.013-.01.082-.117.066-.107-.015-.065.094.038.165.12.118.004-.005.006-.002.008.002.003.015.011.028.026.03-.001-.004.005-.017.02-.018.003 0 .003.004.003.01 0 .021.007.047.037.051-.004-.015.003-.032.012-.032.015 0 .051.063.116.1.055.024.093.083.129.047-.007.056.045.12.033.12-.017 0-.168-.01-.204.009-.056.03-.19.078-.228.023-.014-.02-.01-.037-.027-.067-.012-.02-.03-.034-.044-.035l-.031-.001c-.022-.023-.072-.025-.092-.01a.062.062 0 01.051.034l-.013.026c-.012.018-.006.047.08.077.004.001.011.01.004.013a.044.044 0 01-.046-.006c-.034-.026-.038-.063-.079-.04l-.027.013a.017.017 0 00-.008-.003c-.037-.003-.095.041-.07.086a.07.07 0 01.047-.038l.008.027c.008.043.027.077.116.018.01-.007.01.002.007.004-.022.039-.08.075-.034.104l.02.016c-.002.004-.003.006-.005.007-.008.05.047.09.074.087-.011-.014-.032-.039-.026-.075a.15.15 0 00.024.006c.043-.018.024-.07.047-.083.009-.007.012-.002.012.002.004.022.013.07.064.065.048-.005.072-.043.068-.07-.001-.005 0-.006.004-.005.016.01.03.029.024.053a.08.08 0 00.037-.036.074.074 0 01-.02.088c.019-.007.07-.032.082-.086.006.009.015.019.018.03.002-.003.002-.004.005-.005a.205.205 0 00.101-.001c.005-.004.007 0 .007.005-.006.018-.006.04.005.05 0-.007.014-.026.02-.026.014 0-.001.05.03.08.01-.129.081-.079.161-.13.01-.006.01-.003.007.005a.067.067 0 01-.033.043c.088.019.23-.116.25-.173.036-.005.068-.01.085-.008.255.023.078-.23.487-.157.027.002.077-.026.1-.045-.03.052-.031.165.024.174.027.004.078.02.097.042.006.004.002.006-.003.009a.276.276 0 00-.079.018c-.086.06-.09-.13-.181-.094a.197.197 0 00-.026.018c-.036 0-.086.043-.077.082a.092.092 0 01.059-.033v.02c-.003.013.003.03.034.03.017 0 .022-.01.035-.01.007 0 .012.003.012.01 0 .036-.116-.02-.095.077 0 .002.011.022.017.029-.003.029.02.059.071.042-.01-.006-.027-.019-.024-.035l.023.002c.006 0 .01-.003.013-.016 0-.002.001-.004.005-.004.006.002.009.004.009.009 0 .005-.006.011-.006.021 0 .003.005.027.01.03-.006.035.045.073.097.037-.015-.002-.046-.008-.052-.025l.025-.01c.008-.008.012-.021.012-.037 0-.007.004-.008.009-.008l.023-.001c.013-.002.015.002.018.006.01.022.036.044.071.03.062-.02.011-.075.06-.087.01 0 .025-.004.035 0 .05.014.123.012.136-.01.013-.026.006-.113-.048-.143-.03-.015.003-.053-.026-.097a.46.46 0 00.182.044c.135 0 .167-.019.227-.057.065-.04.14-.018.16-.016.018.003.032.01.027.034-.015.07.007.075-.008.108-.012.027-.07.004-.11.002-.023-.002-.04.012-.04.018-.034.007-.072.035-.07.075.01-.009.032-.028.06-.032l.001.015a.05.05 0 00.087.032c.003-.006.016 0 .01.007-.028.02-.076.065-.036.08.002.002.013.01.025.015-.004.028.018.058.043.063-.01-.017-.012-.025.002-.059.01.002.02.002.024.002.029 0 .015-.058.048-.077.005-.004.008-.001.006.002-.011.034-.018.076.013.086l.024.004c.009.027.041.047.081.025-.008-.004-.03-.014-.035-.029.007-.01.02-.026.021-.032.021-.07-.04-.07-.04-.1 0-.035.07-.012.07-.084 0-.013-.005-.035-.03-.044-.005-.002-.005-.004-.004-.005l.002.001c.02 0 .04.005.051-.024-.054.004-.037-.041-.044-.069-.001-.005-.001-.009.003-.012.018-.011.03-.035.024-.076-.018.025-.076.051-.083.003-.001-.003-.004-.038-.055-.027-.089.008-.151-.01-.317-.024.19 0 .472-.051.472-.158zm-2.273.168c-.002-.002-.002-.004.002-.004l-.002.004zm.462-.416a.406.406 0 00.113.045c-.053.01-.038.033-.072.03-.033 0-.046-.044-.041-.075zm-.07-.035c-.015.025-.046.048-.073.022-.023-.024.004-.032-.026-.079.027.02.082.054.099.057zm-.109.234c.01-.02.018-.036.03-.036.019 0 .03-.004.037-.022.008-.023-.012-.033-.033-.048.022-.004.033-.015.022-.026-.014-.012-.034.01-.039 0-.004-.012.012-.018.018-.024.01-.008.017-.007.03 0l.09.043c.013.006.02.011.02.023 0 .01.004.028-.007.032-.009.002-.008-.028-.024-.032-.015-.001-.015.014-.006.034-.022-.006-.042-.018-.053.003-.01.018-.006.03.007.045.008.01 0 .026-.006.048-.008.02-.035.05-.066.033-.034-.019-.03-.055-.02-.073zm.239.508v-.004c.003.003 0 .004 0 .004zM17.165 14.835c0-.085-.092-.14-.37-.14-.275 0-1.129.104-1.129-.052 0-.098.29-.058.5-.053.008.016.029.03.061.04.356.1.73-.14.984-.054-.202-.183-.462.02-.731-.036.158-.001.322-.032.331-.075-.123.08-.47-.054-.614.038a.076.076 0 00-.023.019c-.264-.003-.585-.036-.585.121 0 .277.97.114 1.203.114.233 0 .281.025.281.069 0 .065-.231.08-.361.08-.216 0-1.123-.117-1.483-.008.02-.062.107-.154.066-.202.035-.016.059-.04.06-.07a.143.143 0 00-.067-.033c.01-.015-.002-.034-.016-.047-.006-.003-.013-.04-.019-.048-.015-.011-.042-.035-.082-.055-.04-.018-.068-.018-.083-.023-.01-.003-.046.01-.05.008-.02-.003-.043-.003-.047.02a.11.11 0 00-.063-.028c-.016.031-.02.055-.009.1-.033 0-.068.084-.099.075.012.024.02.033.031.036-.027.05-.038.108-.07.111a.157.157 0 00.03.032.452.452 0 00-.01.084l-.03-.01c-.018-.001-.038-.001-.041-.004-.015-.003-.029-.006-.047-.007-.044-.003-.075-.075-.15-.118-.054-.032-.057-.058-.057-.115 0-.048.024-.092.02-.136l-.014-.042c-.009-.031-.05-.055-.073-.048a.06.06 0 01.03.049.116.116 0 00-.022.025c-.01.013-.015.033.002.049a.014.014 0 01.004.01.098.098 0 01-.004.021c-.002.01-.005.006-.006 0-.013-.035-.029-.084-.06-.086-.003 0-.016-.003-.022-.002.002-.002.002-.003.002-.007 0-.035-.04-.062-.081-.02.008.001.025.003.032.014a.218.218 0 00-.01.037c-.001.036.026.05.065.05.006 0 .008.003.01.007l.006.015c.002.007-.002.007-.007.005-.06-.028-.089.002-.09.029l.001.024c-.023.018-.028.05.014.075-.002-.01-.003-.034.015-.038.002 0 .004-.002.006-.004.007.007.017.013.018.016.004.004.016.001.035-.012.006-.004.01-.004.017 0l.018.01c.005.006.003.01 0 .013-.042.04-.035.08.021.09.006 0 .008.005.008.013-.005.077-.106.062-.102-.015-.056.089.044.158.12.112.004-.004.006-.002.008.002.004.015.012.028.026.03 0-.006.004-.018.019-.018.002-.001.004.004.004.008 0 .023.009.046.037.051-.004-.016 0-.032.01-.032.014 0 .07.106.182.168.021-.004.053-.004.064-.032.001.01.011.018.024.028.005.05.037.115.027.115-.016 0-.194-.01-.23.01-.052.029-.178.075-.216.021-.013-.018-.009-.035-.025-.062-.012-.02-.03-.033-.042-.033-.003-.002-.017-.002-.03-.002-.02-.022-.067-.026-.087-.01.017.003.033.007.05.034-.006.008-.012.021-.015.023-.01.019-.004.045.077.074.003.001.011.008.004.01-.01.007-.027.01-.045-.003-.03-.025-.036-.06-.072-.039a.307.307 0 01-.027.012l-.008-.003c-.035-.003-.09.043-.065.084a.06.06 0 01.043-.037c.004.008.008.02.008.024.007.042.025.075.11.017.009-.004.009.002.008.007-.022.035-.078.07-.035.098.002 0 .011.009.02.015l-.003.007c-.008.046.042.083.07.08a.088.088 0 01-.026-.072c.011.005.02.01.023.007.041-.015.023-.064.046-.08.006-.005.012 0 .012.006.002.018.01.065.06.06.045-.004.068-.043.064-.068-.001-.003 0-.006.004-.003.016.01.028.027.023.05a.085.085 0 00.035-.033.071.071 0 01-.02.083.116.116 0 00.08-.082.088.088 0 01.015.027l.004-.005c.017.007.05.01.097-.002.005-.001.006 0 .005.004-.002.021-.002.04.006.05 0-.004.014-.024.02-.024.013 0 0 .047.027.075.011-.12.155-.06.232-.11.01-.006.01-.004.008.004a.081.081 0 01-.034.04.185.185 0 00.101-.04l-.009.011.124-.056a.212.212 0 00.006-.036l.043-.01c-.002.002-.003.003-.005.003.08.006.072-.06.103-.055.453.06.193-.194.725-.143.027.001.037-.01.06-.032-.029.052-.029.139.025.148.024.003.073.02.091.04.005.003.001.007-.003.008a.276.276 0 00-.074.019c-.083.053-.086-.123-.173-.09a.214.214 0 00-.024.018c-.035 0-.083.04-.074.077a.088.088 0 01.056-.033v.019c-.004.015.002.028.03.028.02 0 .024-.009.036-.009.007 0 .01.005.01.01 0 .033-.11-.017-.088.074l.016.029c-.004.026.019.054.068.039-.01-.006-.028-.019-.025-.033h.024c.002 0 .008-.001.01-.013.002-.003.002-.005.006-.005.004.003.008.005.008.01s-.005.009-.005.018c0 .003.004.026.008.03-.004.033.045.067.094.034-.014-.001-.045-.007-.048-.024a.094.094 0 01.022-.01c.009-.005.01-.018.01-.033.002-.007.006-.008.01-.008a.2.2 0 00.021-.002c.012-.002.015.003.017.007.01.022.036.04.068.029.059-.021.01-.072.057-.083a.064.064 0 01.035 0c.045.013.115.01.126-.012.013-.023.007-.106-.043-.135-.03-.015.001-.05-.026-.092.051.02.104.042.174.042.126 0 .16-.019.214-.053.063-.039.134-.018.153-.016.016.003.03.01.026.032-.015.066.006.072-.008.101-.012.026-.067.006-.104.002-.023-.001-.04.016-.04.02-.033.004-.068.034-.067.07.011-.007.033-.027.058-.03 0 .006 0 .01.002.014.004.046.054.061.081.03.006-.006.016 0 .01.005-.026.02-.073.065-.034.08l.023.012c-.001.027.018.056.042.059-.008-.014-.011-.024.002-.053h.022c.028.002.015-.056.047-.072.003-.004.006-.002.005.001-.01.032-.016.072.013.08.001 0 .013.005.022.006.008.024.04.043.078.023-.01-.004-.03-.014-.035-.027a.091.091 0 00.02-.029c.02-.068-.038-.07-.038-.097 0-.033.068-.012.068-.082a.047.047 0 00-.03-.041c-.002 0-.002-.002-.001-.003.02 0 .038.004.048-.02-.051.001-.033-.039-.042-.067 0-.006-.002-.01.004-.012.014-.011.027-.034.022-.073-.016.024-.072.051-.076.003-.002-.003-.005-.036-.056-.026-.084.009-.141-.01-.3-.024.159-.01.448-.045.448-.15zm-2.024-.226a.57.57 0 00.108.044c-.049.009-.038.027-.07.026-.033 0-.043-.042-.038-.07zm-.066-.035c-.015.024-.046.045-.069.021-.023-.022.003-.028-.027-.074a.42.42 0 00.096.053zm-.102.223c.007-.019.015-.033.026-.033.02 0 .03-.004.036-.022.008-.022-.012-.032-.031-.044.02-.005.03-.015.02-.025-.012-.011-.033.007-.038-.001-.003-.01.012-.017.018-.022.009-.011.016-.007.027-.002l.089.042c.01.006.017.01.017.023 0 .008.004.027-.005.03-.01.001-.009-.028-.026-.03-.011-.003-.011.01-.004.031-.02-.007-.041-.016-.051.003-.009.017-.006.03.007.044.007.008.002.024-.006.044-.007.02-.033.048-.062.033-.033-.02-.028-.053-.017-.07zM21.104 16.967c-.001-.004-.001-.007.004-.01.017-.011.032-.034.029-.075-.018.026-.076.053-.079.005 0-.002 0-.036-.05-.027-.085.009-.165-.008-.324-.021-.01-.003-.017-.009 0-.012.159-.013.45-.036.45-.138 0-.085-.095-.14-.371-.14s-1.127.101-1.127-.054c0-.098.286-.058.498-.05.01.014.03.027.062.037.356.101.763-.166.978-.104-.28-.097-.456.071-.726.016.157 0 .325-.033.332-.075-.122.079-.468-.055-.614.037a.118.118 0 00-.025.019c-.262-.003-.581-.034-.581.12 0 .276.967.116 1.199.116.234 0 .284.024.284.067 0 .067-.231.084-.362.084-.218 0-1.121-.12-1.483-.01.02-.062.109-.155.068-.202.034-.015.057-.04.058-.072a.122.122 0 00-.068-.031c.01-.017-.003-.034-.016-.047-.003-.003-.011-.042-.02-.048a.334.334 0 00-.082-.056c-.039-.02-.065-.018-.082-.022-.009-.003-.046.008-.05.007-.02-.002-.042-.002-.046.021a.117.117 0 00-.065-.028.13.13 0 00-.007.1c-.034.001-.069.083-.1.074.012.024.022.034.031.036-.026.049-.038.109-.07.11.02.026.035.04.046.04a1.053 1.053 0 00-.007.083l-.047-.016c-.019-.002-.04-.002-.044-.002a.332.332 0 00-.045-.008c-.043-.006-.077-.076-.15-.119-.056-.03-.057-.057-.057-.116 0-.047.022-.09.02-.133a.27.27 0 00-.015-.044c-.008-.03-.05-.054-.073-.048.013.01.026.02.03.048-.01.011-.02.024-.024.026-.007.014-.011.033.003.049.005.003.005.007.005.009a.068.068 0 01-.005.022c-.003.01-.005.004-.006 0-.01-.034-.028-.083-.058-.087l-.024-.001c.001-.001.002-.002.002-.006 0-.034-.039-.064-.08-.021.01.003.027.004.034.015-.005.01-.01.034-.01.036-.003.036.023.05.062.05.008 0 .011.004.012.008l.005.015c.003.007-.002.006-.006.004-.061-.028-.09.002-.09.03 0 .001-.002.017 0 .024-.021.016-.026.05.014.074 0-.01-.002-.035.015-.04h.007c.007.004.015.013.017.013.006.003.015.001.037-.012a.022.022 0 01.016 0c.003.003.01.008.018.012.004.003.004.008 0 .01-.043.042-.036.084.02.093.007.002.009.005.009.012-.004.079-.107.063-.103-.015-.057.09.044.157.12.112.006-.004.007 0 .009.002.004.014.012.028.025.028 0-.003.005-.015.018-.015.004 0 .005.003.005.008.002.02.01.047.038.05-.004-.017 0-.03.01-.03.014 0 .064.113.178.176-.004-.01.042-.028.067-.042.005.022.017.042.038.05l.02-.01c-.008.053.055.108.044.108-.017 0-.123-.013-.159.005-.051.03-.18.075-.217.023-.013-.021-.01-.036-.026-.064-.011-.02-.028-.033-.041-.034h-.03c-.021-.022-.068-.026-.086-.01.015.004.032.007.047.032-.003.01-.011.023-.012.025-.01.018-.005.045.076.073.003 0 .012.007.005.012a.037.037 0 01-.045-.006c-.031-.024-.036-.059-.075-.038-.002.001-.012.007-.025.011h-.007c-.036-.004-.09.04-.066.083a.057.057 0 01.044-.04l.007.026c.008.043.024.075.11.018.01-.004.009.002.006.005-.019.035-.077.07-.033.098l.018.015-.001.008c-.007.047.042.083.07.08a.087.087 0 01-.028-.071c.012.003.022.008.026.007.04-.017.021-.066.045-.082.005-.003.009 0 .011.006.003.02.011.065.06.06.046-.003.068-.043.062-.067 0-.005.002-.005.006-.005.016.011.028.03.023.053a.105.105 0 00.036-.035c.008.022.01.053-.02.085.02-.007.067-.03.079-.083a.074.074 0 01.017.026l.003-.004c.017.007.05.01.096-.002.007-.002.007.002.007.005-.004.019-.004.04.005.049.001-.005.013-.025.02-.025.014 0-.001.047.027.078.011-.124.078-.075.154-.124.01-.006.01-.003.01.005a.084.084 0 01-.036.04c.028.022.14-.049.14-.095 0-.011.043-.015.08-.022.08.004.069-.06.1-.055.454.06.194-.194.726-.142.025 0 .038-.03.06-.05-.028.05-.03.155.025.166a.21.21 0 01.091.038c.005.005 0 .008-.003.009a.263.263 0 00-.076.019c-.08.054-.083-.123-.171-.091a.168.168 0 00-.025.02c-.036-.002-.082.041-.075.077a.088.088 0 01.057-.033v.017c-.002.017.003.03.032.03.018 0 .023-.008.034-.008.006 0 .01.003.01.009 0 .033-.109-.017-.09.072a.169.169 0 00.019.03c-.005.026.018.054.067.039-.01-.007-.027-.021-.023-.034.008.002.018.002.02.002.006 0 .01-.002.014-.014 0-.003 0-.005.005-.004.005 0 .009.004.009.008 0 .005-.007.01-.006.019 0 .002.003.027.007.03-.004.033.044.069.093.034-.014-.001-.044-.008-.049-.023l.025-.011c.007-.006.01-.018.01-.033 0-.008.004-.008.007-.008l.025-.001c.01-.002.012.003.015.006.011.02.036.039.067.027.06-.02.01-.07.058-.081a.092.092 0 01.036 0c.045.011.113.01.126-.012.013-.023.006-.105-.044-.134-.029-.014.001-.052-.025-.094.05.021.103.043.172.043.128 0 .168-.018.228-.053.065-.04.134-.019.155-.015.014.002.027.01.02.03-.018.066 0 .073-.016.103-.013.025-.067.004-.105.001a.053.053 0 00-.04.018c-.032.007-.07.035-.073.071.013-.008.035-.025.061-.028v.013c.001.045.05.06.08.03.002-.005.015 0 .008.006-.028.02-.079.062-.039.078 0 0 .011.008.02.012-.004.028.013.056.037.06-.008-.015-.009-.024.007-.053h.022c.028 0 .02-.056.053-.073.003-.003.007 0 .005.002-.013.032-.023.071.005.08a.095.095 0 00.022.006c.007.024.036.042.075.023-.008-.004-.027-.013-.03-.026a.285.285 0 00.022-.03c.026-.07-.032-.07-.03-.097.004-.033.068-.012.073-.082a.036.036 0 00-.024-.039l-.002-.006h.001c.02 0 .037.006.052-.02-.052.003-.033-.04-.038-.068zm-1.996-.515a.45.45 0 00.108.043c-.05.011-.038.029-.068.029-.033-.001-.045-.043-.04-.072zm-.066-.035c-.015.027-.044.047-.07.023-.023-.024.004-.03-.025-.075.027.017.079.051.095.052zm-.104.224c.01-.02.019-.035.029-.035.019.001.03-.002.036-.022.007-.02-.013-.03-.032-.043.02-.006.032-.016.02-.024-.012-.011-.032.007-.035-.001-.006-.01.01-.017.016-.025.008-.005.015-.004.028 0l.088.042c.009.007.017.01.016.025 0 .007.004.025-.005.027-.01.004-.01-.026-.024-.029-.014-.002-.014.012-.005.033-.022-.008-.04-.02-.052.002-.008.017-.006.028.008.044.006.007 0 .023-.007.046-.007.018-.032.045-.061.03a.05.05 0 01-.02-.07zm-.072-.124h-.005.005zm.022-.099l-.007.003c.002 0 .003-.003.007-.003zm.413.647c.002 0 0 0 0 0zM19.861 17.664c.008.018.026.034.062.045.34.097.728-.158.933-.1-.268-.093-.436.068-.694.016.151 0 .31-.032.318-.074-.117.078-.446-.048-.586.037a.103.103 0 00-.02.016c-.187-.004-.34-.004-.34.118 0 .264.705.109.928.109.22 0 .194.023.194.065 0 .063-.253.08-.377.08-.19 0-.767-.1-1.119-.03.028-.058.092-.132.057-.174.032-.013.054-.039.055-.067a.113.113 0 00-.065-.029c.01-.016-.001-.034-.015-.047-.004-.002-.011-.039-.019-.044a.289.289 0 00-.077-.052c-.04-.02-.063-.02-.08-.023-.008-.002-.042.007-.047.006-.019-.001-.04-.001-.044.02a.1.1 0 00-.06-.026.126.126 0 00-.01.094c-.03.003-.063.083-.092.073.01.022.02.032.03.034-.027.046-.038.103-.067.106.01.014.018.022.027.029a.437.437 0 00-.017.1l-.031-.012h-.014c-.041-.004-.066 0-.137-.04-.053-.03-.054-.056-.054-.11 0-.045.022-.086.019-.13 0-.005-.007-.027-.012-.04-.011-.028-.05-.052-.072-.045.012.008.026.02.029.044-.01.012-.019.022-.02.025-.01.014-.016.032.001.046.004.003.004.007.004.01l-.003.022c-.002.008-.005.004-.007 0-.012-.034-.026-.082-.056-.082-.003 0-.015-.003-.021-.002v-.005c0-.035-.036-.062-.076-.022.01.003.025.005.032.015-.004.011-.01.03-.01.035-.002.034.025.046.061.048.006 0 .009.002.011.007a.062.062 0 01.003.014c.003.006 0 .006-.005.003-.06-.026-.084.003-.086.028 0 .002-.001.017.002.025-.021.014-.027.047.012.07 0-.01-.002-.032.012-.036.004 0 .006-.003.01-.005.005.008.014.014.015.016.006.003.015.002.035-.011.005-.005.008-.006.014-.003.005.006.012.009.018.013.005.004.003.007.002.01-.04.039-.035.078.018.087.007.001.009.007.009.013-.005.074-.103.06-.1-.015-.053.085.044.15.117.107.003-.004.005 0 .007.001.004.014.011.027.025.029 0-.006.005-.016.015-.016.006 0 .006.003.006.008 0 .018.008.043.036.048-.005-.015 0-.03.01-.03.013 0 .01-.033.1.017a.064.064 0 00.035.035l.066-.012c-.008.051.008.128-.003.128-.016 0-.118-.01-.153.008-.049.026-.17.07-.205.02-.012-.018-.009-.035-.023-.06-.013-.019-.029-.031-.04-.032h-.03c-.019-.022-.064-.025-.083-.01.015.003.034.007.046.03-.006.009-.01.022-.011.024-.01.017-.005.043.072.07.003 0 .01.008.004.012a.043.043 0 01-.043-.005c-.03-.025-.033-.057-.069-.036a.8.8 0 01-.025.01c-.003-.001-.005-.003-.01-.003-.032-.001-.083.04-.06.08a.054.054 0 01.04-.035l.008.023c.007.04.025.071.105.016.009-.004.009.003.007.005-.02.035-.072.069-.031.095.002.001.01.009.018.013l-.005.01c-.006.043.042.077.07.074a.08.08 0 01-.028-.068c.011.004.022.008.026.007.039-.015.019-.061.041-.077.006-.004.01-.001.01.004.003.019.011.062.058.06.045-.006.065-.042.06-.066 0-.003.001-.004.007-.003a.047.047 0 01.02.05c.007-.006.025-.018.034-.035.008.022.01.052-.019.081.019-.006.065-.028.074-.078a.06.06 0 01.017.024c.003 0 .003-.002.005-.003.013.005.045.01.09-.002.006-.001.007.001.007.004-.006.018-.006.038.005.049 0-.007.012-.027.018-.027.012 0 0 .047.027.074.01-.116.103-.087.177-.135.007-.006.008-.003.007.003a.067.067 0 01-.032.038c.078.05.16-.058.184-.117a.077.077 0 00.02-.024c.006.012.008.024-.013.035.077.005.068-.055.098-.052.23.019.055-.193.424-.129.024.003.07-.02.09-.04-.026.048-.028.15.024.158.025.004.07.02.088.036.005.006 0 .008-.003.01a.183.183 0 00-.073.018c-.077.05-.08-.118-.162-.085a.076.076 0 00-.024.015c-.033 0-.079.04-.07.074a.09.09 0 01.053-.03l-.001.018c-.002.012.003.027.03.027.02 0 .022-.01.034-.01.005 0 .01.004.01.011 0 .03-.103-.018-.085.069 0 .001.009.02.016.026-.004.026.019.053.064.038-.008-.005-.025-.02-.022-.032.008.002.018.002.02.002.004.002.01-.003.011-.012 0-.005.001-.006.005-.006.005.001.01.006.01.01s-.007.008-.007.016c0 .002.005.025.009.03-.006.03.041.064.088.033-.014-.003-.043-.008-.046-.025.009-.004.02-.007.022-.009.007-.006.01-.017.01-.031 0-.008.006-.008.009-.008.005 0 .014 0 .021-.002.01 0 .014.002.016.006.01.022.033.038.065.028.056-.02.007-.07.053-.077.008-.002.022-.006.034-.001.044.01.109.008.12-.011.014-.022.008-.102-.042-.13-.028-.012.004-.047-.023-.089a.373.373 0 00.165.042c.119 0 .176-.016.237-.05.07-.037.132-.019.15-.016.014.003.025.011.014.032-.027.062-.011.069-.03.095-.02.024-.066.006-.102.002-.02 0-.04.014-.04.016-.033.007-.075.036-.081.07.011-.008.036-.027.063-.029a.152.152 0 00-.004.014c-.006.043.037.056.07.027.006-.006.017 0 .009.007-.03.02-.085.06-.054.075a.23.23 0 01.022.01c-.01.026.003.055.023.058-.004-.015-.003-.024.017-.051l.021.001c.026 0 .027-.055.062-.07.005-.002.008-.002.005.002-.019.03-.034.068-.008.076l.02.006c0 .024.028.04.07.021-.009-.003-.028-.014-.028-.025l.027-.028c.035-.066-.02-.066-.013-.093.008-.032.065-.01.084-.075.001-.012.001-.033-.018-.04-.004-.001-.004-.004-.003-.004h.002c.019 0 .035.005.053-.022-.05.004-.023-.037-.023-.062 0-.004 0-.008.003-.011.02-.011.036-.032.04-.07-.02.023-.08.048-.076.004 0-.003.007-.032-.043-.025-.082.006-.196-.007-.347-.022-.01-.002-.016-.008 0-.012.15-.01.46-.033.46-.13 0-.081-.016-.134-.278-.134-.264 0-.858.098-.858-.05 0-.072.115-.066.254-.058zm-.858-.017c-.016.023-.043.042-.067.02-.02-.022.003-.03-.023-.072a.426.426 0 00.09.052zm.053.16c-.009.001-.008-.025-.023-.028-.014-.004-.012.01-.005.03-.02-.007-.038-.019-.048.002-.01.017-.005.027.007.041.007.008 0 .024-.006.042-.007.018-.032.045-.06.03-.03-.016-.025-.048-.018-.066.01-.019.017-.031.027-.031.019 0 .028-.004.035-.02.007-.022-.012-.031-.03-.044.019-.006.03-.014.019-.022-.014-.011-.031.007-.035-.002-.003-.01.01-.017.016-.022.008-.007.015-.007.026 0l.085.038c.009.007.016.01.015.024 0 .007.004.024-.005.027zm.045-.06c-.03 0-.042-.042-.036-.07a.396.396 0 00.102.043c-.046.01-.036.029-.066.027zM19.582 18.887c.008.018.027.034.063.045.339.095.726-.159.934-.102-.268-.092-.438.07-.695.016.15 0 .31-.03.318-.07-.117.076-.446-.053-.586.032a.128.128 0 00-.026.026c-.104.023-.194.08-.194.156 0 .223.869.047.869.122 0 .06-.171.116-.398.116-.174 0-.473-.114-.849-.02v-.004c.027-.064.106-.16.07-.202.033-.012.053-.037.054-.062a.098.098 0 00-.06-.027c.007-.019-.003-.032-.016-.047-.004-.002-.01-.036-.018-.042a.29.29 0 00-.072-.05c-.037-.017-.061-.016-.077-.022-.008-.002-.04.01-.044.01-.017-.003-.04-.003-.042.017a.108.108 0 00-.056-.026.11.11 0 00-.01.09c-.03.002-.06.078-.087.07.01.021.02.03.028.031-.025.046-.036.098-.064.1a.141.141 0 00.031.032.614.614 0 00-.015.212c-.052-.055-.132-.181-.186-.212-.05-.03-.05-.054-.05-.104 0-.043.02-.081.017-.122a.27.27 0 00-.012-.04c-.008-.028-.045-.048-.067-.043.012.009.026.02.028.044a.137.137 0 00-.02.023c-.01.012-.014.028.001.044.004.003.004.005.004.009l-.004.02c0 .009-.003.004-.005 0-.01-.032-.026-.077-.052-.078l-.021-.001v-.007c0-.032-.034-.056-.073-.018.009.001.025.005.03.013a.204.204 0 00-.007.034c-.004.03.022.044.056.044.006 0 .011 0 .011.006.001.006.004.01.004.014.001.007 0 .007-.004.003-.058-.023-.082.004-.084.027 0 .002-.001.017.002.024-.02.014-.026.043.012.067 0-.012-.002-.031.012-.036.002 0 .006 0 .008-.003l.016.015c.003.002.013 0 .034-.013.004 0 .005-.002.01 0l.018.012c.004.003.003.007 0 .009-.038.037-.03.072.018.083.007 0 .01.005.01.01-.006.07-.098.057-.093-.014-.052.082.04.144.108.103.005-.004.007-.002.008.003.003.012.009.023.023.024-.001-.004.004-.015.015-.016.005 0 .006.004.006.008 0 .019.006.043.033.047-.004-.015 0-.028.008-.028.013 0 0 .108.1.167a.114.114 0 00.12.086c.018.042.043.082.035.082-.014 0-.134-.013-.167.004a.334.334 0 01-.11.038l-.007.009c.002-.004.003-.007.006-.009-.035.005-.067.002-.083-.018-.012-.017-.008-.034-.022-.06-.012-.016-.027-.027-.037-.029h-.03c-.018-.019-.06-.023-.077-.01.014.004.031.007.043.03-.003.009-.01.02-.01.023-.01.016-.004.04.068.065.005.001.011.008.005.01-.012.006-.027.008-.04-.004-.03-.023-.033-.054-.069-.034a.075.075 0 01-.021.01l-.01-.001c-.03-.003-.081.036-.057.075a.058.058 0 01.039-.035c.002.009.007.02.009.023.004.037.021.068.096.016.01-.004.01.003.006.007-.017.03-.069.061-.028.088l.017.01a.016.016 0 00-.003.01c-.008.042.039.073.063.071-.01-.011-.03-.032-.023-.064.008.003.02.008.023.006.035-.014.018-.06.039-.073.006-.004.008 0 .008.005.003.018.012.058.056.055.041-.003.061-.04.057-.061 0-.003 0-.005.004-.003.014.008.028.024.021.046a.085.085 0 00.032-.031.06.06 0 01-.018.073.1.1 0 00.07-.073.043.043 0 01.016.025c.002 0 .002-.001.004-.004.014.008.044.01.087-.002.004-.002.007.002.007.005-.005.016-.005.035.003.045 0-.004.012-.023.018-.023.012 0 0 .042.025.068.01-.109.07-.066.14-.112.007-.004.008-.002.006.006a.083.083 0 01-.03.035c.026.002.104-.034.104-.074 0-.015.05-.06.064-.19.008 0 .018.002.029 0 .092-.007.134-.074.226-.08-.021.027-.031.091-.028.134.002.05.065.105.084.12.004.007 0 .008-.004.01a.194.194 0 00-.067.017c-.075.05-.076-.111-.155-.082a.136.136 0 00-.022.017c-.033-.002-.076.037-.068.07a.083.083 0 01.05-.03v.016c0 .014.003.026.03.026.015 0 .019-.008.03-.008.006 0 .01.004.01.01 0 .031-.1-.018-.08.066l.013.025c-.003.024.02.05.062.036-.008-.007-.024-.017-.02-.032.007 0 .017.003.019.003.004 0 .009-.003.012-.013 0-.002 0-.004.003-.004.005.002.008.004.008.008s-.007.01-.006.018c0 .002.005.023.008.024-.004.03.04.061.084.031-.012 0-.04-.005-.043-.02a.13.13 0 00.02-.01c.008-.004.01-.017.01-.028 0-.009.004-.009.007-.009h.022c.009-.002.012 0 .014.007.01.016.032.035.061.023.053-.017.01-.063.052-.074.007 0 .02-.002.032 0 .042.011.074.02.086-.002.01-.019.005-.096-.04-.122-.026-.014.039-.179-.089-.257.06.015.252.042.284-.005a.333.333 0 01.132.065c.007.012.012.025-.005.034-.051.032-.043.049-.071.058l-.005.002c-.016-.017-.034-.041-.05-.051-.02-.01-.038-.004-.04 0-.028-.007-.068.002-.081.032.013-.001.035-.01.058-.001l-.004.012c-.004.009 0 .019.011.026.002 0 .003.003.005.004.002.004.002.008-.005.008-.029-.006-.085-.009-.07.025l.005.022c-.02.017-.026.048-.013.065.005-.013.01-.021.036-.032.006.008.012.014.013.017.017.017.046-.028.077-.017.004.001.006.004.003.006-.03.013-.058.032-.046.056a.15.15 0 00.01.019c-.01.02-.003.053.034.066-.003-.008-.01-.029-.004-.04a.247.247 0 00.032-.005c.057-.03.02-.068.04-.084.022-.02.048.035.093-.007.008-.006.017-.024.01-.044v-.005.001c.013.013.023.028.046.017-.035-.03.003-.044.017-.067.003-.004.005-.007.01-.005.017.004.039-.003.061-.03-.025.004-.09-.035-.05-.05.057-.02.069-.053.043-.083-.046-.06-.14-.065-.143-.132l.086-.001c.294.001.48-.081.475-.174-.01-.198-.887.016-.887-.128 0-.043.054-.076.122-.1zm-.636.029c.011.01.068.033.097.04-.045.008-.035.026-.062.024-.028 0-.04-.039-.035-.064zm-.058-.03c-.015.02-.042.04-.063.019-.022-.02 0-.027-.025-.067a.392.392 0 00.088.048zm-.095.2c.01-.017.017-.031.025-.031.016 0 .027-.002.032-.018.007-.02-.01-.03-.028-.04.019-.006.028-.014.019-.023-.012-.01-.03.006-.033 0-.005-.01.01-.017.014-.023.008-.007.016-.003.026 0l.079.038c.008.007.015.01.015.022 0 .007.003.023-.006.026-.008 0-.006-.024-.02-.026-.013-.003-.013.008-.005.027-.02-.005-.037-.016-.046.003-.008.015-.006.026.008.039.005.008 0 .023-.007.04s-.029.044-.056.028c-.03-.016-.026-.046-.017-.062zM5.379 3.604a.213.213 0 10-.423-.002.213.213 0 00.423.002zM5.305 3.038a.214.214 0 00-.214-.213.213.213 0 10.214.213zM5.425 2.786a.213.213 0 10.002-.425.213.213 0 00-.002.425zM5.991 2.749a.213.213 0 10.002-.425.213.213 0 00-.002.425zM8.406 2.356a.213.213 0 00.3-.3.213.213 0 10-.3.3zM8.359 1.903a.211.211 0 000-.3.212.212 0 100 .3zM7.795 1.811a.214.214 0 00-.301-.301.213.213 0 00.302.302zM7.315 2.168a.213.213 0 000-.3.215.215 0 00-.302 0 .213.213 0 10.302.3zM5.959 1.876l.17.371.216-.258.025.009c.019.124.027.341.027.463a.27.27 0 10.398-.24 2.122 2.122 0 01-.3-.279.1.1 0 00.013-.034l.36.032-.142-.382-.269.229a.052.052 0 00-.014-.008l-.02-.395-.371.142.247.292a.114.114 0 00-.015.03l-.325.028zM8.42 2.537c.083.129.112.19.118.293a.61.61 0 01-.22-.201l.043.495c.06-.088.107-.148.177-.179-.017.322-.147.456-.256.478a.209.209 0 01-.254-.165c-.026-.143.098-.233.224-.104.023-.298-.216-.293-.32-.167.123-.287.073-.477-.182-.63-.159.268-.092.443.11.647-.195-.1-.372.068-.197.287.037-.19.203-.148.241.004.033.131-.091.298-.303.362-.305.093-.404-.103-.478-.268.066-.043.224-.027.397.084l-.147-.485a.494.494 0 01-.29.294c-.01-.14.092-.424.092-.424l-.585.238s.27.13.363.239a.491.491 0 01-.413-.008l.232.45c.047-.201.149-.322.227-.338.061.17.127.38-.155.527-.196.102-.402.07-.47-.048-.079-.134.01-.282.17-.171-.028-.28-.271-.277-.342-.067.003-.288-.072-.461-.375-.542-.075.287.024.459.313.578-.164-.018-.339.145-.114.344 0-.182.15-.203.234-.082a.21.21 0 01-.068.295c-.095.06-.28.056-.518-.164.072-.027.149-.017.252.005l-.313-.385a.6.6 0 01-.019.299c-.067-.078-.088-.143-.119-.293l-.24.213c.227.138.488.354.803.791.334-.208.93-.495 1.3-.646.37-.15.997-.36 1.38-.444-.08-.533-.044-.869.022-1.126l-.32.014zM13.084 16.063c.084-.226-.334-.485-.382-.81-.047-.327-.008-.637-.381-1.074-.366-.428-1.64-1.787-2.022-2.221.096-.01.322-.061.558.16.137.13.409.388.662.638.338-.858.754-1.5 1.35-2.17.075-.086.153-.169.232-.25-.219.067-.556.118-.753.25-.015-.374.014-.677-.242-.914.098-.523.013-1.154-1.158-1.931.598.144.953.686 1.411.27-.412-.011-.421-.908-1.905-1.655.568-.011 1.01.905 1.666.385-.62-.073-.824-1.172-1.94-1.513.387.044.787.233 1.118-.216-.385.09-.614-.266-1.03-.298.157-.482.119-.779-.047-1.138-.291.02-.589.11-.804.285-.032-.264-.31-.28-.556-.26.013.114.068.28-.059.303-.2.038-.862.217-1.374.415-.513.2-1.098.563-1.267.68-.104.071-.193-.097-.256-.174-.18.154-.357.352-.225.553-.285.025-.599.1-.866.31 0 .331.274.652.683.832-.689.684-.065 1.317-.671 1.914.852.031.703-1.155 1.134-1.32-.045.834-.51.982-.51 1.882 0 .482.286 1.003.03 1.32.713-.196.525-1.773.97-2.248.076.27.031.533-.06.803-.25.735.028 1.742-.36 2.069.727-.071.813-1.239 1.412-1.668-.514 1.052-1.042 3.29-1.81 4.412-1.241 1.672-1.97 3.715-3.109 3.715-.502 0-.88-.308-.88-.943 0-1.902 3.264-3.211 3.264-5.24 0-.9-.736-1.247-1.196-1.247-.312 0-.686.155-1 .413a1.094 1.094 0 00-.385-.085c-1.154 0-.846 2.075-1.851 2.054.397.224 1.085-.212 1.49-.792-.17 1.345-2.105.987-1.957 2.602.272-1.264 3.356-1.08 3.356-2.997 0-.217-.11-.398-.265-.541.232-.148.45-.204.652-.204.369 0 .706.276.706.819 0 1.7-3.244 3.132-3.244 5.218 0 .352.103.646.269.876-.228.097-.463.052-.659-.176-.018.536.75.875 1.233.605.107.038.219.06.337.069-.148.399-.644.519-.903.5.797.627 2.183-.195 2.106-.905.632-.508 1.032-1.38 1.49-1.954a5.764 5.764 0 00-.073.396c-.465.845-.901 1.604-1.023 2.719-.101.933-.573 1.772-1.228 1.772-.143 0-.38-.187-.491-.093-.205.175-.011.359-.011.532 0 .266-.511.53-.511 1.35 0 .369.214.81.133 1.054.209-.108.487-.457.602-.91.225 1.082-.462 1.035.033 1.995.06-.318.378-.45.571-.318.196.134.104.226-.04.37-.143.143-.276.86.38.818-.123-.08-.132-.27.193-.338.451-.09.584.116 1.065.116.296 0 .379-.389.614-.389.236 0 .236.184.153.317.38-.102.45-.306.45-.521 0-.214-.174-.347-.04-.429.133-.082.573.01.399.367.226-.04.347-.204.347-.48 0-.277-.316-.44-.613-.389-.05-.175-.308-.267-.543-.267-.532 0-.45.42-.815.42-.583 0-1.15-.76-1.15-2.04 0-.685.737-.859 1.26-1.083.52-.226 1.436-.788 1.984-1.708.43-.72.443-1.509.388-2.443.735.421.82 1.028.82 1.47 0 .572-.295.804-.529.91-.198.091-.264.054-.285.171-.026.146.072.23.158.275.265.137.21.391.285.665.075.277.32.711.732 1.027.043-.17.031-.443.006-.798.567.278.113 1.414 1.211 1.414-.201-.116-.148-.414-.032-.456.116-.043.264.074.477.37.212.297.155.272.674.272.518 0 .286-.18.56-.18.276 0 .254.318.107.551.464-.14.604-.491.447-.854.408-.22.625.092.684.315.403-.402 0-.889-.316-.922.01-.148-.128-.306-.297-.317a4.095 4.095 0 00-.518-.011c-.19.01-.297.286-.52.286-.687 0-2.049-1.246-2.049-1.787 0-.539 1.302-.867 1.302-1.704 0-1.094-1.075-1.465-1.98-2.168.322-.362 1.264-.447 1.797-.186.061-.305.257-.23.328-.755.192.462-.006.86.19 1.056.151-.222.542-.19.517-.762.119.358-.15.906.119 1.145.048-.294.223-.35.334-.35.111 0 .208.08.208.255 0 .436-.54.232-.54.725 0 .208.263.278.263.413 0 .134-.215.342-.477.167.087.19.26.358.485.358.238 0 .494-.192.593-.438.124.315.029.662-.196.708.239.118.803.006.738-.717.319.054.486.269.296.654.263-.064.501-.192.501-.47 0-.215-.232-.28-.13-.558zM6.918 6.204c-.298.027-.29-.258-.814-.385.369-.075.842-.26 1.253-.418.078.343-.063.77-.44.803zm2.107 2.234c-.382.165-.68-.17-.753-.399-.074-.231-.135-.42-.046-.507.165-.163.217-.29.118-.494-.115-.235-.364-.124-.632-.057.124-.226.134-.386-.036-.365-.203.023-.206.353-.32.313-.112-.038-.048-.228-.048-.33.001-.138.09-.188.231-.25l1.108-.42c.143-.053.241-.08.34.02.071.072.249.164.194.27-.055.107-.285-.127-.448-.002-.136.105-.017.211.229.285-.24.14-.494.233-.413.483.07.214.194.269.426.27.126 0 .215.182.32.398.107.215.138.61-.27.785zm.066-3.088c-.296.233-.69.02-.87-.284.41-.168.881-.357 1.201-.556-.295.453-.094.655-.33.84zM33.878 21.306a.919.919 0 001.836 0 .919.919 0 00-1.836 0zm.235 0c0-.377.307-.682.685-.682a.681.681 0 11-.684.682zM30.456 22.15a.531.531 0 00-.227.341c-.03.16.02.323.141.459a.812.812 0 00.46.248.823.823 0 00.517-.072.538.538 0 00.291-.382c.06-.318-.211-.634-.6-.706a.784.784 0 00-.582.113zm.415.817c-.262-.047-.446-.242-.412-.434a.305.305 0 01.13-.19.557.557 0 01.408-.074c.236.042.415.215.415.389l-.003.046c-.036.192-.277.31-.538.263zM25.404 9.282c-.286.221-.369.594-.187.83h.001c.183.235.563.246.849.025a.714.714 0 00.279-.465.489.489 0 00-.094-.364.48.48 0 00-.325-.18.717.717 0 00-.523.154zm-.05.536c0-.119.071-.256.194-.35a.486.486 0 01.348-.108.248.248 0 01.17.093c.05.063.053.138.047.19a.485.485 0 01-.191.31c-.179.138-.416.145-.52.016a.244.244 0 01-.048-.15zM29.379 20.627a.794.794 0 00-.224.548v.02c0 .208.074.406.205.54a.522.522 0 00.37.169.538.538 0 00.378-.155.794.794 0 00.225-.55.812.812 0 00-.154-.499.549.549 0 00-.421-.23.54.54 0 00-.38.157zm.357 1.04h-.002a.288.288 0 01-.205-.095.555.555 0 01-.138-.392.537.537 0 01.152-.383.289.289 0 01.211-.091c.195.004.348.223.343.49a.548.548 0 01-.153.384.293.293 0 01-.208.088zm-.006.237h-.001zM24.89 13.216a.539.539 0 00-.308.267c-.14.294.035.67.391.84.195.094.41.111.593.048.14-.05.25-.143.308-.267a.533.533 0 00.015-.408.788.788 0 00-.407-.432.783.783 0 00-.592-.048zm.184.897c-.24-.116-.364-.351-.28-.528a.288.288 0 01.174-.147.545.545 0 01.413.037.558.558 0 01.287.299.297.297 0 01-.006.23.304.304 0 01-.174.146.562.562 0 01-.414-.037z" fill="#fff" fill-rule="nonzero"/>
                            <path d="M34.53 12.273c.298.82.891 1.115 1.345.904-1.013-.118-.193-1.85-1.495-1.85a.987.987 0 00-.21.023c-.222-.234-.475-.331-.848-.331-.552 0-1.5.532-1.5 1.631 0 2.366 2.747 2.575 2.747 4.667a.959.959 0 01-.978.991c-.462 0-.834-.519-1.223-1.33-.186-.388-.585-.917-1.008-1.468.125.09.267.14.408.143a.518.518 0 00.381-.14.527.527 0 00.161-.37v-.022c0-.187-.08-.379-.222-.532a.792.792 0 00-.54-.255.526.526 0 00-.381.139.526.526 0 00-.161.371v.02c0 .082.015.164.045.242-.592-.772-1.142-1.53-1.142-1.946 0-.365.253-.688.565-1.076l.107.061.083-.092c.11-.121.34-.374.815-.883l.028-.03-.001.002.113-.12-.294-.238c.078-.178.145-.37.197-.58.092.38.286.621.556.545-.178-.393.182-.92-.055-1.881.225.37.547.567.781.499-.608-.54.182-1.293-.612-2.46.26.087.431.036.546-.093-.723-.1-.393-1.024-1.663-1.354.316-.055.502-.24.455-.407-.335.242-.63-.45-1.73-.432-.067-.412-.449-.845-.881-1.054.081.319.006.606-.077.845L25.257.892c-.104-.097-.163-.121-.192-.085-.03.036-.025.101.04.173l3.079 3.86c-.233.08-.46.177-.698.264a.417.417 0 00-.268.4c-.57.284-1.071.635-1.321.862-.19.173-.34.213-.174.601.064.148-.133.512.312.245.293-.175.956-.54 1.054-.31.052.12-.276.275-.5.361-.225.088-.468.26-.433.347.034.085.213-.006.225.085.013.104.084.193.174.193.089 0 .204-.188.277-.125.072.063-.036.484-.108.59.349-.044.572-.376.582-.634.008-.26.08-.323.133-.358.054-.036.117.277.045.465.184-.04.376-.282.35-.73.093-.073.187-.13.258-.13.117 0 .349.323.68.323.61 0 .949-.494.984-.725.029-.188.015-.37-.087-.508.22.175.29.45.29.656 0 .864-1.526 1.27-2.153 1.866-.023.02-.045.043-.069.065l-.717-.277-.047.158a74.828 74.828 0 01-.368 1.186c-.002 0-.039.118-.039.118l.064.037c-.426.564-.766 1.197-.844 1.847a6.3 6.3 0 00-.522-.477.843.843 0 00.039-.197.707.707 0 00-.164-.506.481.481 0 00-.33-.166.476.476 0 00-.348.129.412.412 0 00-.063.066l-.076-.06c-.236-.181-.53-.397-.707-.592-.075-.083-.151-.129-.311-.129-.062 0-.212-.006-.319-.006-.105 0-.167.081-.288.189-.057.05-.222.178-.407.32.088.09.175.181.26.276.046.052.091.106.136.161.05-.039.092-.07.125-.097a.415.415 0 01.265-.075c.092 0 .221.067.311.204.065.098.644.858 1.125 1.387a2.09 2.09 0 00-.152.057c-.206.085-.669.068-.874.052-.208-.017-.247-.068-.387.151a2.727 2.727 0 01-.19.266c-.068.084-.123.18.024.426.211.358.736 1.299.911 1.724.173.425.38.493.713.63.335.136.905.464.972.539l.022-.325c-.099-.1-.418-.22-.538-.262-.121-.045-.153-.097-.007-.097.143 0 .545.144.828.259-.085-.319-.39-.668-.572-.865-.24-.07-.485-.07-.584.007a.132.132 0 01-.136.152c-.094 0-.157-.081-.128-.168.03-.096.174-.128.143-.31-.03-.182-.257-.213-.403-.229-.203-.295-.44-.728-.547-.903-.105-.175-.041-.274.032-.334.175-.144.539.076 1.267.122.253.015.575.032.902.047.096.846.435 1.65 1.613 1.944.577.143 1.168.564 1.372 1.117-2.352-.04-2.721.875-2.721 1.741 0 .983.829.928.829 1.666 0 .643-1.978.91-2.575.997-.507.075-.796.187-1.039.431-.242.243-.489.477-.93.919 0 0 .187.043.375.032l.334-.432c.099-.144.167-.265.233-.254.066.012.022.121-.057.276l-.274.464c1.16.078 1.237-.353 1.237-.53 0-.177-.287-.297-.121-.408.166-.111.309-.034.442.12.132.156.176.288.497.166 0 0 2.53-1.048 2.85-1.193.287-.13.205-.255.034-.397-.19-.156-.221-.41-.221-.674 0-.767.46-1.003 1.284-.987-.017.13-.026.255-.026.368 0 1.195 1.807 2.363 2.296 2.363.217 0 .511-.161.53.558.013.53.12.904.025 1.517-.096.611-.273.705-.639.963-.367.258-.715 1.066-.87 1.238.163.106.34.121.475-.274.113-.325.242-.557.384-.636-.143.36-.248.886-.316 1.045.462.08 1.21-.34 1.21-.666 0-.325-.258-.3-.258-.516 0-.097.117-.203.258-.203.185 0 .326.147.34.215.204-.109.332-.312.326-.787-.004-.185-.011-.38-.02-.578a.537.537 0 00.458.31.804.804 0 00.505-.136.78.78 0 00.344-.485.532.532 0 00-.07-.4.528.528 0 00-.339-.224.788.788 0 00-.582.125.787.787 0 00-.336.444c-.037-.65-.084-1.263-.066-1.51.027-.365.04-.528-.083-.582-.121-.055-.256.15-.432.15-.179 0-.709-.49-.709-1.006 0-.517.559-1.183.53-1.89-.009-.22.13-.335.218-.134.107.241.266.568.505.835-.148.89.83 1.755 1.634 1.113-.398.058-.67-.295-.847-.65a1.228 1.228 0 00.337.014c.282.349 1.179.32 1.41-.547-.156.183-.48.32-.713.29.338-.262.514-.691.514-1.152 0-2.254-2.735-2.517-2.735-4.57 0-.76.667-1.25 1.128-1.25a.69.69 0 01.425.136c-.176.18-.272.452-.257.783.073 1.62 2.72 1.54 2.754 2.32.297-1.175-1.677-.812-1.749-2.394zm-7.044-6.217c.128-.245 0-.618.447-.618.22 0 .417.22.682.306-.431.036-.82.133-1.13.312zm-2.42 4.967a.47.47 0 01-.141.324.245.245 0 01-.175.068c-.152-.009-.273-.185-.273-.392v-.032a.46.46 0 01.14-.322.248.248 0 01.179-.069c.077.005.134.05.168.088a.464.464 0 01.103.335zm7.818 11.382a.565.565 0 01.245-.336.556.556 0 01.405-.092.31.31 0 01.192.124v.001a.288.288 0 01.037.222.558.558 0 01-.244.337c-.223.145-.49.131-.598-.032a.297.297 0 01-.037-.224zm-1.643-7.552a.29.29 0 01.087-.21.297.297 0 01.215-.075.569.569 0 01.374.182.562.562 0 01.16.386.292.292 0 01-.088.206l-.001.003a.299.299 0 01-.214.074.55.55 0 01-.373-.183.555.555 0 01-.16-.383zm-4.49-5.097c.128-.398.369-1.186.369-1.186l.417.161c-.122.047-.27.163-.399.284a.429.429 0 00.378-.028l-.167.418c-.038-.067-.156-.218-.272-.244-.086.336.125.462.278.54.254.13.42.151.49.036.08-.146-.087-.347-.3-.256-.023-.218.1-.335.243-.335.116 0 .207.104.238.246-.014-.354.145-.63.473-.733.119.345.021.577-.238.827.136-.055.292-.046.355.049.08.12.05.286-.143.39-.044-.23-.308-.247-.384-.1-.074.145.04.285.273.414.271.151.489.062.635-.174-.09-.03-.245-.013-.39.079l.277-.52a.538.538 0 00.176.306c.04-.116.102-.32.016-.504l.597.345c-.2.019-.347.171-.426.267.144.05.278.025.35 0l-.31.498c.006-.171-.055-.313-.126-.376-.132.244-.101.477.165.636.231.139.408.167.496.03.09-.14-.058-.36-.277-.284-.008-.22.12-.327.264-.319.117.009.2.14.222.283.085-.348.239-.55.596-.619.075.335-.083.611-.399.777.14-.045.276-.018.333.082.072.125.033.289-.169.38-.028-.23-.286-.275-.37-.134-.067.12.034.253.275.407.145.094.357.213.607-.027-.082-.091-.272-.117-.347-.117l.277-.352a.432.432 0 00.165.34c.041-.173.066-.358.046-.486l.35.28s-.564.602-.844.913l-3.8-2.194zm3.707 9.343c-.152.212-.407.288-.575.17-.166-.117-.18-.385-.03-.597.15-.21.405-.288.573-.171.168.119.181.386.032.598zm1.08-1.706c-.15.212-.407.287-.573.168-.168-.118-.18-.386-.03-.597.152-.212.407-.287.574-.17.167.119.179.388.028.599zM47.18 21.134h3.298c1.356 0 5.01-.375 5.01-5.866 0-3.549-1.315-5.7-4.969-5.7h-3.34v11.566zM45.195 7.899h5.115c4.592 0 7.16 2.296 7.16 7.097 0 4.99-2.192 7.808-7.16 7.808h-5.115V7.899zM66.692 16.374c-.084-1.69-1.357-3.048-3.111-3.048-1.858 0-2.964 1.4-3.09 3.048h6.2zm1.711 3.006c-.48 2.38-2.192 3.674-4.613 3.674-3.445 0-5.073-2.38-5.177-5.678 0-3.235 2.13-5.615 5.073-5.615 3.82 0 4.989 3.57 4.884 6.18h-8.079c-.062 1.878 1.002 3.548 3.362 3.548 1.46 0 2.484-.71 2.797-2.109h1.753zM75.069 13.326c-2.38 0-3.298 2.046-3.298 4.071 0 2.13.96 4.092 3.402 4.092 2.422 0 3.236-2.067 3.236-4.175 0-2.025-1.044-3.988-3.34-3.988zm-5.01-1.315h1.774v1.462h.042c.584-1.19 1.962-1.712 3.444-1.712 3.32 0 4.969 2.63 4.969 5.678s-1.628 5.615-4.927 5.615c-1.106 0-2.693-.417-3.486-1.69h-.042v5.573h-1.774V12.011zM88.523 17.23c-.689.501-2.025.522-3.215.73-1.169.21-2.17.627-2.17 1.942 0 1.17 1.001 1.587 2.087 1.587 2.338 0 3.298-1.461 3.298-2.443V17.23zm2.88 5.532c-.312.188-.709.292-1.272.292-.92 0-1.503-.5-1.503-1.67-.982 1.149-2.297 1.67-3.8 1.67-1.962 0-3.57-.876-3.57-3.026 0-2.443 1.817-2.965 3.654-3.32 1.962-.376 3.632-.25 3.632-1.586 0-1.545-1.273-1.796-2.4-1.796-1.504 0-2.61.46-2.694 2.046h-1.774c.104-2.672 2.17-3.611 4.572-3.611 1.941 0 4.05.438 4.05 2.964v5.553c0 .835 0 1.211.563 1.211.147 0 .314-.021.543-.105v1.378zM92.606 12.011h1.67v2.276h.042c.856-1.733 2.046-2.589 3.967-2.526v1.879c-2.86 0-3.904 1.628-3.904 4.363v4.8h-1.775V12.012zM102.338 12.011h2.15v1.566h-2.15v6.701c0 .815.23.96 1.336.96h.815v1.566h-1.358c-1.836 0-2.567-.376-2.567-2.36v-6.867h-1.837V12.01h1.837V8.775h1.774v3.236zM105.81 12.011h1.67v1.587h.041c.794-1.21 2.004-1.837 3.487-1.837 1.315 0 2.526.522 2.964 1.837a3.993 3.993 0 013.382-1.837c2.15 0 3.59.897 3.59 3.13v7.913h-1.774v-7.077c0-1.336-.355-2.4-2.088-2.4-1.711 0-2.818 1.085-2.818 2.755v6.722h-1.774v-7.077c0-1.399-.438-2.4-2.025-2.4-2.109 0-2.88 1.941-2.88 2.755v6.722h-1.776V12.01zM130.606 16.374c-.084-1.69-1.357-3.048-3.11-3.048-1.859 0-2.965 1.4-3.09 3.048h6.2zm1.712 3.006c-.48 2.38-2.192 3.674-4.614 3.674-3.445 0-5.073-2.38-5.177-5.678 0-3.235 2.13-5.615 5.073-5.615 3.82 0 4.989 3.57 4.885 6.18h-8.08c-.062 1.878 1.003 3.548 3.362 3.548 1.46 0 2.484-.71 2.797-2.109h1.754zM133.944 12.011h1.67v1.712h.042c.751-1.336 1.962-1.962 3.507-1.962 2.839 0 3.715 1.628 3.715 3.945v7.098h-1.774v-7.307c0-1.315-.835-2.17-2.192-2.17-2.15 0-3.194 1.44-3.194 3.381v6.096h-1.774V12.01zM147.435 12.011h2.15v1.566h-2.15v6.701c0 .815.23.96 1.336.96h.815v1.566h-1.357c-1.837 0-2.568-.376-2.568-2.36v-6.867h-1.837V12.01h1.837V8.775h1.774v3.236zM157.665 13.577h-1.816V12.01h1.816v-1.607c0-1.753 1.043-2.672 2.985-2.672.334 0 .814.062 1.148.167v1.544a3.333 3.333 0 00-1.002-.145c-.856 0-1.357.27-1.357 1.21v1.503h2.088v1.566h-2.088v9.227h-1.774v-9.227zM167.081 21.489c1.858 0 3.361-1.461 3.361-4.07 0-2.631-1.503-4.093-3.36-4.093-1.859 0-3.362 1.462-3.362 4.092 0 2.61 1.503 4.071 3.361 4.071zm0-9.728c3.424 0 5.24 2.484 5.24 5.657 0 3.152-1.816 5.636-5.24 5.636-3.423 0-5.24-2.484-5.24-5.636 0-3.173 1.817-5.657 5.24-5.657zM173.782 12.011h1.67v2.276h.042c.856-1.733 2.046-2.589 3.967-2.526v1.879c-2.86 0-3.904 1.628-3.904 4.363v4.8h-1.775V12.012zM186.474 7.899h10.292v1.67h-8.308v4.739h7.744v1.67h-7.744v5.156h8.37v1.67h-10.354V7.899zM202.77 21.489c2.38 0 3.298-2.046 3.298-4.07 0-2.13-.96-4.093-3.402-4.093-2.422 0-3.236 2.067-3.236 4.175 0 2.026 1.044 3.988 3.34 3.988zm5.01 1.315h-1.774v-1.461h-.042c-.585 1.19-1.962 1.711-3.444 1.711-3.32 0-4.969-2.63-4.969-5.678s1.628-5.615 4.927-5.615c1.106 0 2.693.417 3.486 1.69h.042V7.9h1.774v14.905zM218.882 22.804h-1.67v-1.711h-.042c-.752 1.335-1.963 1.961-3.507 1.961-2.84 0-3.716-1.627-3.716-3.945V12.01h1.774v7.307c0 1.315.835 2.171 2.192 2.171 2.15 0 3.194-1.44 3.194-3.382V12.01h1.775v10.793zM228.426 15.477c-.271-1.357-1.211-2.15-2.672-2.15-2.568 0-3.361 2.025-3.361 4.216 0 1.984.897 3.946 3.152 3.946 1.712 0 2.735-1.002 2.964-2.63h1.817c-.397 2.63-2.046 4.195-4.76 4.195-3.298 0-5.052-2.295-5.052-5.51 0-3.236 1.67-5.783 5.094-5.783 2.442 0 4.404 1.148 4.655 3.716h-1.837zM238.578 17.23c-.69.501-2.025.522-3.215.73-1.17.21-2.171.627-2.171 1.942 0 1.17 1.002 1.587 2.087 1.587 2.338 0 3.299-1.461 3.299-2.443V17.23zm2.88 5.532c-.313.188-.71.292-1.273.292-.919 0-1.503-.5-1.503-1.67-.981 1.149-2.296 1.67-3.799 1.67-1.963 0-3.57-.876-3.57-3.026 0-2.443 1.816-2.965 3.653-3.32 1.962-.376 3.632-.25 3.632-1.586 0-1.545-1.273-1.796-2.4-1.796-1.503 0-2.61.46-2.693 2.046h-1.774c.104-2.672 2.17-3.611 4.571-3.611 1.941 0 4.05.438 4.05 2.964v5.553c0 .835 0 1.211.563 1.211.147 0 .314-.021.543-.105v1.378zM245.028 12.011h2.15v1.566h-2.15v6.701c0 .815.23.96 1.336.96h.815v1.566h-1.358c-1.836 0-2.567-.376-2.567-2.36v-6.867h-1.837V12.01h1.837V8.775h1.774v3.236zM248.585 12.011h1.775v10.793h-1.775V12.01zm1.775-1.941h-1.775V7.899h1.775v2.17zM257.238 21.489c1.858 0 3.36-1.461 3.36-4.07 0-2.631-1.502-4.093-3.36-4.093-1.858 0-3.361 1.462-3.361 4.092 0 2.61 1.503 4.071 3.36 4.071zm0-9.728c3.423 0 5.24 2.484 5.24 5.657 0 3.152-1.817 5.636-5.24 5.636-3.424 0-5.24-2.484-5.24-5.636 0-3.173 1.816-5.657 5.24-5.657zM264.074 12.011h1.67v1.712h.042c.751-1.336 1.962-1.962 3.507-1.962 2.84 0 3.716 1.628 3.716 3.945v7.098h-1.774v-7.307c0-1.315-.836-2.17-2.192-2.17-2.15 0-3.195 1.44-3.195 3.381v6.096h-1.774V12.01z" fill="#fff" fill-rule="nonzero"/>                            
                        </g>
                    </g>
                </g>
            </g>
        </g>
    </g>
</svg>
