
<svg width="960px" height="640px" viewBox="0 0 960 640" version="1.1" xmlns="http://www.w3.org/2000/svg" xmlns:xlink="http://www.w3.org/1999/xlink">
    <defs>
        <rect id="path-1" x="0" y="0" width="180" height="40"></rect>
        <filter x="-0.6%" y="-2.5%" width="101.1%" height="105.0%" filterUnits="objectBoundingBox" id="filter-2">
            <feOffset dx="0" dy="-2" in="SourceAlpha" result="shadowOffsetInner1"></feOffset>
            <feComposite in="shadowOffsetInner1" in2="SourceAlpha" operator="arithmetic" k2="-1" k3="1" result="shadowInnerInner1"></feComposite>
            <feColorMatrix values="0 0 0 0 0   0 0 0 0 0.176470588   0 0 0 0 0.0941176471  0 0 0 1 0" type="matrix" in="shadowInnerInner1"></feColorMatrix>
        </filter>
        <rect id="path-3" x="0" y="0" width="180" height="40"></rect>
        <filter x="-0.6%" y="-2.5%" width="101.1%" height="105.0%" filterUnits="objectBoundingBox" id="filter-4">
            <feOffset dx="0" dy="-2" in="SourceAlpha" result="shadowOffsetInner1"></feOffset>
            <feComposite in="shadowOffsetInner1" in2="SourceAlpha" operator="arithmetic" k2="-1" k3="1" result="shadowInnerInner1"></feComposite>
            <feColorMatrix values="0 0 0 0 0   0 0 0 0 0.176470588   0 0 0 0 0.0941176471  0 0 0 1 0" type="matrix" in="shadowInnerInner1"></feColorMatrix>
        </filter>
    </defs>
    <g id="Page-1" stroke="none" stroke-width="1" fill="none" fill-rule="evenodd">
        <g id="border" fill-rule="nonzero">
            <path d="M0,40 L0,10 C0,4.5 4.5,0 10,0 L950,0 C955.5,0 960,4.5 960,10 L960,40" id="Path" fill="#DADADA"></path>
            <g id="Group" transform="translate(16.000000, 11.000000)" fill="#FFFFFF">
                <circle id="Oval" cx="9.381" cy="9" r="8.5"></circle>
                <circle id="Oval" cx="33.132" cy="9" r="8.5"></circle>
                <circle id="Oval" cx="56.883" cy="9" r="8.5"></circle>
            </g>
            <polygon id="Path" fill="#DADADA" points="0 636 960 636 960 640 0 640"></polygon>
            <polyline id="Path" fill="#DADADA" points="4 640 4 40 956 40 956 640 960 640 960 36 0 36 0 640"></polyline>
        </g>
        <g id="2---components/header/default" transform="translate(4.000000, 40.000000)">
            <g id="Header">
                <g id="Blue-bar" transform="translate(30.000000, 55.000000)" fill="#005DA6">
                    <rect id="Blue-Bar" x="0" y="0" width="894.060606" height="10"></rect>
                </g>
                <g id="Black-bar" fill="#0B0C0C">
                    <rect id="Black-Bar" x="0" y="0" width="952" height="55"></rect>
                </g>
                <g id="4---granular-components/govuk-logo" transform="translate(47.000000, 10.000000)" fill="#FFFFFF">
                    <g id="logo">
                        <g id="crown" transform="translate(0.000000, 3.000000)">
                            <path d="M6.5335,8.6764 C7.4825,9.0674 8.5605,8.6204 8.9465,7.6814 C9.3355,6.7454 8.8905,5.6574 7.9415,5.2684 C7.0105,4.8854 5.9285,5.3414 5.5415,6.2814 C5.1545,7.2164 5.6025,8.2944 6.5335,8.6764" id="Fill-1"></path>
                            <path d="M2.3547,11.1254 C3.3047,11.5174 4.3807,11.0694 4.7677,10.1304 C5.1567,9.1944 4.7117,8.1064 3.7617,7.7164 C2.8317,7.3344 1.7497,7.7914 1.3627,8.7314 C0.9757,9.6654 1.4237,10.7434 2.3547,11.1254" id="Fill-3"></path>
                            <path d="M3.5452,14.7773 C3.9342,13.8413 3.4892,12.7533 2.5402,12.3633 C1.6092,11.9813 0.5272,12.4373 0.1392,13.3773 C-0.2478,14.3123 0.2002,15.3903 1.1312,15.7713 C2.0812,16.1633 3.1582,15.7153 3.5452,14.7773" id="Fill-5"></path>
                            <path d="M11.1973,10.1488 C12.1463,10.5398 13.2243,10.0928 13.6103,9.1538 C13.9993,8.2178 13.5543,7.1298 12.6053,6.7398 C11.6743,6.3578 10.5923,6.8138 10.2053,7.7548 C9.8183,8.6888 10.2663,9.7668 11.1973,10.1488" id="Fill-8"></path>
                            <path d="M28.0962,8.6764 C29.0272,8.2944 29.4752,7.2164 29.0872,6.2814 C28.7002,5.3414 27.6192,4.8854 26.6872,5.2684 C25.7382,5.6574 25.2942,6.7454 25.6822,7.6814 C26.0692,8.6204 27.1462,9.0674 28.0962,8.6764" id="Fill-10"></path>
                            <path d="M32.2747,11.1254 C33.2057,10.7434 33.6537,9.6654 33.2667,8.7314 C32.8797,7.7914 31.7977,7.3344 30.8667,7.7164 C29.9177,8.1064 29.4727,9.1944 29.8617,10.1304 C30.2477,11.0694 31.3257,11.5174 32.2747,11.1254" id="Fill-12"></path>
                            <path d="M34.4895,13.3773 C34.1025,12.4373 33.0205,11.9813 32.0895,12.3633 C31.1405,12.7533 30.6955,13.8413 31.0845,14.7773 C31.4705,15.7153 32.5485,16.1633 33.4975,15.7713 C34.4295,15.3913 34.8775,14.3123 34.4895,13.3773" id="Fill-14"></path>
                            <path d="M23.4321,10.1488 C24.3631,9.7668 24.8111,8.6888 24.4231,7.7548 C24.0371,6.8138 22.9551,6.3578 22.0241,6.7398 C21.0751,7.1298 20.6301,8.2178 21.0181,9.1538 C21.4051,10.0928 22.4821,10.5398 23.4321,10.1488" id="Fill-17"></path>
                            <path d="M16.3336,5.385 C16.4026,5.476 16.4836,5.556 16.5746,5.624 L15.2346,9.666 C15.2336,9.671 15.2316,9.676 15.2306,9.681 L15.2286,9.685 L15.2296,9.686 C15.1666,9.887 15.1326,10.102 15.1326,10.324 C15.1326,11.417 15.9406,12.32 16.9906,12.475 C17.0056,12.477 17.0216,12.48 17.0376,12.482 C17.1276,12.494 17.2176,12.501 17.3106,12.501 C17.4036,12.501 17.4946,12.494 17.5836,12.482 C17.5996,12.48 17.6156,12.477 17.6306,12.475 C18.6806,12.32 19.4886,11.417 19.4886,10.324 C19.4886,10.102 19.4546,9.887 19.3926,9.686 L19.3926,9.685 L19.3916,9.681 C19.3906,9.676 19.3886,9.671 19.3866,9.666 L18.0466,5.624 C18.1376,5.556 18.2186,5.476 18.2886,5.385 L18.2936,5.38 L20.6266,6.605 L20.6266,3.166 L18.2966,3.904 L18.2896,3.897 C18.2246,3.812 18.1486,3.735 18.0636,3.669 L18.0566,3.662 L18.9946,0.711 L17.3106,0.712 L15.6266,0.711 L16.5646,3.662 L16.5576,3.669 C16.4726,3.735 16.3966,3.812 16.3316,3.897 L16.3246,3.904 L13.9946,3.166 L13.9946,6.605 L16.3286,5.38 L16.3336,5.385 Z" id="Fill-19"></path>
                            <path d="M30.8532,18.9611 C30.4392,18.5571 30.0472,17.8121 29.7412,16.6751 L28.5252,20.7241 C29.2652,20.2151 29.8352,19.8861 30.4882,19.8711 C29.3312,22.3631 27.8852,23.0051 26.9482,22.8321 C25.8042,22.6221 25.2782,21.6021 25.4562,20.7371 C25.7192,19.5111 26.9772,19.1921 27.5642,20.6181 C28.6892,18.3261 26.7822,17.6111 25.5552,18.2901 C27.4392,16.4101 27.6552,14.7391 26.1342,12.7171 C24.0142,14.3371 23.9902,15.9421 24.9432,18.1991 C23.7052,16.7821 21.7802,17.5431 22.4762,19.8321 C23.3682,18.4501 24.5502,19.3191 24.3642,20.6321 C24.2072,21.7751 22.6982,22.6991 20.8172,22.5351 C18.1232,22.2911 17.9632,20.4311 17.8952,18.8921 C18.5572,18.7691 19.7502,19.3841 20.7672,20.8121 L21.1422,16.5171 C20.0362,17.6701 19.0302,17.8891 17.9132,17.9251 C18.2852,16.7651 19.9942,14.8641 19.9942,14.8641 L17.5112,14.8641 L17.5102,14.8641 L17.5082,14.8641 L14.6332,14.8641 C14.6332,14.8641 16.3422,16.7651 16.7142,17.9251 C15.5972,17.8891 14.5912,17.6701 13.4852,16.5171 L13.8592,20.8121 C14.8772,19.3841 16.0692,18.7701 16.7322,18.8921 C16.6652,20.4311 16.5052,22.2911 13.8102,22.5351 C11.9292,22.6991 10.4192,21.7751 10.2632,20.6321 C10.0772,19.3191 11.2592,18.4501 12.1522,19.8321 C12.8472,17.5431 10.9212,16.7821 9.6842,18.1991 C10.6372,15.9421 10.6122,14.3371 8.4932,12.7171 C6.9722,14.7391 7.1882,16.4101 9.0722,18.2901 C7.8452,17.6111 5.9392,18.3261 7.0622,20.6181 C7.6502,19.1921 8.9092,19.5111 9.1712,20.7371 C9.3482,21.6021 8.8222,22.6231 7.6792,22.8321 C6.7422,23.0051 5.2972,22.3631 4.1392,19.8711 C4.7922,19.8861 5.3622,20.2151 6.1022,20.7241 L4.8862,16.6751 C4.5802,17.8121 4.1882,18.5571 3.7742,18.9611 C3.4942,18.1421 3.5342,17.5491 3.7832,16.2741 L1.2752,17.1681 C2.6072,18.9871 3.8982,21.5411 4.9582,25.9991 C8.6922,25.4651 12.8822,25.1651 17.3112,25.1651 C21.7402,25.1651 25.9332,25.4651 29.6692,26.0001 C30.7292,21.5411 32.0192,18.9871 33.3522,17.1681 L30.8432,16.2741 C31.0932,17.5491 31.1322,18.1421 30.8532,18.9611" id="Fill-21"></path>
                        </g>
                        <text id="gov.uk" font-family="Helvetica" font-size="28" font-weight="normal" letter-spacing="1">
                            <tspan aria-hidden="true" x="42" y="28">GOV.UK</tspan>
                        </text>
                    </g>
                </g>
            </g>
        </g>
        <text id="API-subscriptions" font-family="Arial-BoldMT, Arial" font-size="48" font-weight="bold" line-spacing="50" fill="#0B0C0C">
            <tspan aria-hidden="true" x="38" y="195">API subscriptions</tspan>
        </text>
        <text id="Subscribe" font-family="ArialMT, Arial" font-size="19" font-weight="normal" fill="#FFFFFF">
            <tspan aria-hidden="true" x="780.755615" y="372">Subscribe</tspan>
        </text>
        <text id="Sandbox" font-family="Arial-BoldMT, Arial" font-size="22" font-weight="bold" fill="#000000">
            <tspan aria-hidden="true" x="38" y="391">Sandbox</tspan>
        </text>
        <text id="Production" font-family="Arial-BoldMT, Arial" font-size="22" font-weight="bold" fill="#000000">
            <tspan aria-hidden="true" x="38" y="482">Production</tspan>
        </text>
        <g id="Standard---focussed" transform="translate(739.000000, 453.000000)">
            <g id="Click-Area">
                <use fill="#D73011" fill-rule="evenodd" xlink:href="#path-1"></use>
                <use fill="black" fill-opacity="1" filter="url(#filter-2)" xlink:href="#path-1"></use>
            </g>
            <text id="Unsubscribe" font-family="ArialMT, Arial" font-size="19" font-weight="normal" fill="#FFFFFF">
                <tspan aria-hidden="true" x="37.197998" y="27">Unsubscribe</tspan>
            </text>
        </g>
        <g id="Standard---focussed-Copy" transform="translate(739.000000, 351.000000)">
            <g id="Click-Area">
                <use fill="#00703C" fill-rule="evenodd" xlink:href="#path-3"></use>
                <use fill="black" fill-opacity="1" filter="url(#filter-4)" xlink:href="#path-3"></use>
            </g>
            <text id="Subscribe" font-family="ArialMT, Arial" font-size="19" font-weight="normal" fill="#FFFFFF">
                <tspan aria-hidden="true" x="47.7556152" y="27">Subscribe</tspan>
            </text>
        </g>
        <text id="Status" font-family="ArialMT, Arial" font-size="18" font-weight="normal" fill="#000000">
            <tspan aria-hidden="true" x="38" y="539">Status</tspan>
        </text>
        <g id="Accordion" transform="translate(38.000000, 248.000000)">
            <g id="Row-1" transform="translate(0.000000, 22.000000)">
                <path d="M0,145.699115 L881,145.699115" id="Line" stroke="#B1B4B6" stroke-linecap="square"></path>
                <path d="M0,1.30088496 L881,1.30088496" id="Line" stroke="#B1B4B6" stroke-linecap="square"></path>
                <text id="Attendance-API" font-family="Arial-BoldMT, Arial" font-size="28" font-weight="bold" fill="#2A61AD">
                    <tspan aria-hidden="true" x="0" y="48.1769912">Attendance API</tspan>
                </text>
                <g id="4---granular-components/-" transform="translate(834.852381, 39.026549)" fill="#0B0C0C">
                    <polygon id="-" points="3.06353153 4.16823611 3.06353153 1.3017342 17.8411501 1.3017342 17.8411501 4.16823611"></polygon>
                </g>
            </g>
            <text id="Close-all" font-family="Helvetica" font-size="16" font-weight="normal" fill="#1D70B8">
                <tspan aria-hidden="true" x="818.640625" y="15">Close all</tspan>
            </text>
        </g>
        <path d="M39.632,559 L919,559" id="Line-2" stroke="#979797" stroke-linecap="square"></path>
        <path d="M38.316,505 L919,505" id="Line-2" stroke="#979797" stroke-linecap="square"></path>
        <g id="COMPLETE-tag" transform="translate(739.000000, 518.000000)">
            <rect id="Tag" fill="#D5CFE5" x="0" y="0" width="180" height="28"></rect>
            <text id="PENDING-APPROVAL" font-family="Arial-BoldMT, Arial" font-size="14" font-weight="bold" letter-spacing="0.875" fill="#341E67">
                <tspan aria-hidden="true" x="11.0483398" y="20">PENDING APPROVAL</tspan>
            </text>
        </g>
    </g>
</svg>